<svg xmlns="http://www.w3.org/2000/svg" version="1.1">
	<rect x="-16.5" y="-16.5" width="11.0" height="11.0" fill="none" style="stroke:rgb(0,0,0);stroke-width:0.2"/>
	<rect x="-18.5" y="-19.5" width="18.0" height="14.0" fill="none" style="stroke:rgb(0,0,0);stroke-width:0.2"/>
	<rect x="-16.223078" y="-11.223077" width="0.24615386" height="0.24615386"/>
	<rect x="-14.14" y="-14.14" width="0.080000006" height="0.080000006"/>
	<rect x="-11.223077" y="-16.223078" width="0.24615386" height="0.24615386"/>
	<rect x="-16.14" y="-16.14" width="0.080000006" height="0.080000006"/>
	<rect x="-15.167692" y="-15.167692" width="0.13538462" height="0.13538462"/>
	<rect x="-11.14" y="-11.14" width="0.080000006" height="0.080000006"/>
	<text x="-5.0" y="-17.5" font-size=".9">2005</text>
	<text x="-16.0" y="-17.0" transform="rotate(-90 -16.0,-17.0)" font-size=".6">Lucas</text>
	<text x="-15.0" y="-17.0" transform="rotate(-90 -15.0,-17.0)" font-size=".6">Louise</text>
	<text x="-14.0" y="-17.0" transform="rotate(-90 -14.0,-17.0)" font-size=".6">Nathan</text>
	<text x="-13.0" y="-17.0" transform="rotate(-90 -13.0,-17.0)" font-size=".6">Gabriel</text>
	<text x="-12.0" y="-17.0" transform="rotate(-90 -12.0,-17.0)" font-size=".6">Camille</text>
	<text x="-11.0" y="-17.0" transform="rotate(-90 -11.0,-17.0)" font-size=".6">Lea</text>
	<text x="-10.0" y="-17.0" transform="rotate(-90 -10.0,-17.0)" font-size=".6">Hugo</text>
	<text x="-9.0" y="-17.0" transform="rotate(-90 -9.0,-17.0)" font-size=".6">Sarah</text>
	<text x="-8.0" y="-17.0" transform="rotate(-90 -8.0,-17.0)" font-size=".6">Enzo</text>
	<text x="-7.0" y="-17.0" transform="rotate(-90 -7.0,-17.0)" font-size=".6">Chloe</text>
	<text x="-6.0" y="-17.0" transform="rotate(-90 -6.0,-17.0)" font-size=".6">Emma</text>
	<text x="-5.0" y="-16.0" font-size=".6">Lucas</text>
	<text x="-5.0" y="-15.0" font-size=".6">Louise</text>
	<text x="-5.0" y="-14.0" font-size=".6">Nathan</text>
	<text x="-5.0" y="-13.0" font-size=".6">Gabriel</text>
	<text x="-5.0" y="-12.0" font-size=".6">Camille</text>
	<text x="-5.0" y="-11.0" font-size=".6">Lea</text>
	<text x="-5.0" y="-10.0" font-size=".6">Hugo</text>
	<text x="-5.0" y="-9.0" font-size=".6">Sarah</text>
	<text x="-5.0" y="-8.0" font-size=".6">Enzo</text>
	<text x="-5.0" y="-7.0" font-size=".6">Chloe</text>
	<text x="-5.0" y="-6.0" font-size=".6">Emma</text>
	<circle cx="-17.5" cy="16.0" r="0.5" fill-opacity="0.0" style="stroke:rgb(0,0,0);stroke-width:0.1"/>	<circle cx="-17.5" cy="6.5" r="0.5" fill-opacity="0.0" style="stroke:rgb(0,0,0);stroke-width:0.1"/>	<rect x="4.7" y="-16.5" width="11.0" height="11.0" fill="none" style="stroke:rgb(0,0,0);stroke-width:0.2"/>
	<rect x="2.6999998" y="-19.5" width="18.0" height="14.0" fill="none" style="stroke:rgb(0,0,0);stroke-width:0.2"/>
	<rect x="7.0323076" y="-15.167692" width="0.13538462" height="0.13538462"/>
	<rect x="6.0323076" y="-16.167692" width="0.13538462" height="0.13538462"/>
	<rect x="9.866154" y="-16.333847" width="0.46769235" height="0.46769235"/>
	<rect x="6.0323076" y="-14.167692" width="0.13538462" height="0.13538462"/>
	<rect x="15.059999" y="-6.14" width="0.080000006" height="0.080000006"/>
	<rect x="4.8661537" y="-11.333846" width="0.46769235" height="0.46769235"/>
	<rect x="7.0323076" y="-16.167692" width="0.13538462" height="0.13538462"/>
	<rect x="5.0323076" y="-15.167692" width="0.13538462" height="0.13538462"/>
	<rect x="6.06" y="-15.14" width="0.080000006" height="0.080000006"/>
	<rect x="5.0046153" y="-16.195385" width="0.19076924" height="0.19076924"/>
	<rect x="5.0323076" y="-14.167692" width="0.13538462" height="0.13538462"/>
	<text x="16.2" y="-17.5" font-size=".9">2006</text>
	<text x="5.2" y="-17.0" transform="rotate(-90 5.2,-17.0)" font-size=".6">Lucas</text>
	<text x="6.2" y="-17.0" transform="rotate(-90 6.2,-17.0)" font-size=".6">Louise</text>
	<text x="7.2" y="-17.0" transform="rotate(-90 7.2,-17.0)" font-size=".6">Nathan</text>
	<text x="8.2" y="-17.0" transform="rotate(-90 8.2,-17.0)" font-size=".6">Gabriel</text>
	<text x="9.2" y="-17.0" transform="rotate(-90 9.2,-17.0)" font-size=".6">Camille</text>
	<text x="10.2" y="-17.0" transform="rotate(-90 10.2,-17.0)" font-size=".6">Lea</text>
	<text x="11.2" y="-17.0" transform="rotate(-90 11.2,-17.0)" font-size=".6">Hugo</text>
	<text x="12.2" y="-17.0" transform="rotate(-90 12.2,-17.0)" font-size=".6">Sarah</text>
	<text x="13.2" y="-17.0" transform="rotate(-90 13.2,-17.0)" font-size=".6">Enzo</text>
	<text x="14.2" y="-17.0" transform="rotate(-90 14.2,-17.0)" font-size=".6">Chloe</text>
	<text x="15.2" y="-17.0" transform="rotate(-90 15.2,-17.0)" font-size=".6">Emma</text>
	<text x="16.2" y="-16.0" font-size=".6">Lucas</text>
	<text x="16.2" y="-15.0" font-size=".6">Louise</text>
	<text x="16.2" y="-14.0" font-size=".6">Nathan</text>
	<text x="16.2" y="-13.0" font-size=".6">Gabriel</text>
	<text x="16.2" y="-12.0" font-size=".6">Camille</text>
	<text x="16.2" y="-11.0" font-size=".6">Lea</text>
	<text x="16.2" y="-10.0" font-size=".6">Hugo</text>
	<text x="16.2" y="-9.0" font-size=".6">Sarah</text>
	<text x="16.2" y="-8.0" font-size=".6">Enzo</text>
	<text x="16.2" y="-7.0" font-size=".6">Chloe</text>
	<text x="16.2" y="-6.0" font-size=".6">Emma</text>
	<circle cx="3.6999998" cy="16.0" r="0.5" fill-opacity="0.0" style="stroke:rgb(0,0,0);stroke-width:0.1"/>	<circle cx="3.6999998" cy="6.5" r="0.5" fill-opacity="0.0" style="stroke:rgb(0,0,0);stroke-width:0.1"/>	<rect x="25.9" y="-16.5" width="11.0" height="11.0" fill="none" style="stroke:rgb(0,0,0);stroke-width:0.2"/>
	<rect x="23.9" y="-19.5" width="18.0" height="14.0" fill="none" style="stroke:rgb(0,0,0);stroke-width:0.2"/>
	<rect x="26.232307" y="-8.167692" width="0.13538462" height="0.13538462"/>
	<rect x="31.232307" y="-6.167692" width="0.13538462" height="0.13538462"/>
	<rect x="30.26" y="-12.14" width="0.080000006" height="0.080000006"/>
	<rect x="31.232307" y="-12.167692" width="0.13538462" height="0.13538462"/>
	<rect x="27.232307" y="-11.167692" width="0.13538462" height="0.13538462"/>
	<rect x="27.066153" y="-14.333846" width="0.46769235" height="0.46769235"/>
	<rect x="35.232307" y="-16.167692" width="0.13538462" height="0.13538462"/>
	<rect x="27.176922" y="-12.223077" width="0.24615386" height="0.24615386"/>
	<rect x="28.066153" y="-16.333847" width="0.46769235" height="0.46769235"/>
	<rect x="31.066153" y="-16.333847" width="0.46769235" height="0.46769235"/>
	<rect x="26.066153" y="-15.333846" width="0.46769235" height="0.46769235"/>
	<rect x="35.232307" y="-11.167692" width="0.13538462" height="0.13538462"/>
	<rect x="34.232307" y="-11.167692" width="0.13538462" height="0.13538462"/>
	<rect x="31.232307" y="-15.167692" width="0.13538462" height="0.13538462"/>
	<rect x="30.176922" y="-16.223078" width="0.24615386" height="0.24615386"/>
	<rect x="30.176922" y="-14.223077" width="0.24615386" height="0.24615386"/>
	<rect x="35.232307" y="-14.167692" width="0.13538462" height="0.13538462"/>
	<rect x="34.232307" y="-16.167692" width="0.13538462" height="0.13538462"/>
	<rect x="28.176922" y="-12.223077" width="0.24615386" height="0.24615386"/>
	<rect x="35.260002" y="-7.14" width="0.080000006" height="0.080000006"/>
	<rect x="36.232307" y="-16.167692" width="0.13538462" height="0.13538462"/>
	<rect x="32.232307" y="-10.167692" width="0.13538462" height="0.13538462"/>
	<rect x="27.066153" y="-16.333847" width="0.46769235" height="0.46769235"/>
	<rect x="31.232307" y="-7.167692" width="0.13538462" height="0.13538462"/>
	<rect x="28.066153" y="-15.333846" width="0.46769235" height="0.46769235"/>
	<rect x="31.232307" y="-8.167692" width="0.13538462" height="0.13538462"/>
	<rect x="27.26" y="-15.14" width="0.080000006" height="0.080000006"/>
	<rect x="36.232307" y="-11.167692" width="0.13538462" height="0.13538462"/>
	<rect x="36.260002" y="-6.14" width="0.080000006" height="0.080000006"/>
	<rect x="30.232307" y="-11.167692" width="0.13538462" height="0.13538462"/>
	<rect x="28.232307" y="-11.167692" width="0.13538462" height="0.13538462"/>
	<rect x="26.176922" y="-12.223077" width="0.24615386" height="0.24615386"/>
	<rect x="35.232307" y="-12.167692" width="0.13538462" height="0.13538462"/>
	<rect x="26.066153" y="-14.333846" width="0.46769235" height="0.46769235"/>
	<rect x="34.260002" y="-8.14" width="0.080000006" height="0.080000006"/>
	<rect x="26.232307" y="-7.167692" width="0.13538462" height="0.13538462"/>
	<rect x="30.232307" y="-7.167692" width="0.13538462" height="0.13538462"/>
	<rect x="33.260002" y="-9.14" width="0.080000006" height="0.080000006"/>
	<rect x="26.066153" y="-11.333846" width="0.46769235" height="0.46769235"/>
	<rect x="28.232307" y="-7.167692" width="0.13538462" height="0.13538462"/>
	<rect x="35.232307" y="-15.167692" width="0.13538462" height="0.13538462"/>
	<rect x="30.176922" y="-15.223077" width="0.24615386" height="0.24615386"/>
	<rect x="27.232307" y="-7.167692" width="0.13538462" height="0.13538462"/>
	<rect x="26.232307" y="-6.167692" width="0.13538462" height="0.13538462"/>
	<rect x="31.232307" y="-14.167692" width="0.13538462" height="0.13538462"/>
	<text x="37.4" y="-17.5" font-size=".9">2007</text>
	<text x="26.4" y="-17.0" transform="rotate(-90 26.4,-17.0)" font-size=".6">Lucas</text>
	<text x="27.4" y="-17.0" transform="rotate(-90 27.4,-17.0)" font-size=".6">Louise</text>
	<text x="28.4" y="-17.0" transform="rotate(-90 28.4,-17.0)" font-size=".6">Nathan</text>
	<text x="29.4" y="-17.0" transform="rotate(-90 29.4,-17.0)" font-size=".6">Gabriel</text>
	<text x="30.4" y="-17.0" transform="rotate(-90 30.4,-17.0)" font-size=".6">Camille</text>
	<text x="31.4" y="-17.0" transform="rotate(-90 31.4,-17.0)" font-size=".6">Lea</text>
	<text x="32.4" y="-17.0" transform="rotate(-90 32.4,-17.0)" font-size=".6">Hugo</text>
	<text x="33.4" y="-17.0" transform="rotate(-90 33.4,-17.0)" font-size=".6">Sarah</text>
	<text x="34.4" y="-17.0" transform="rotate(-90 34.4,-17.0)" font-size=".6">Enzo</text>
	<text x="35.4" y="-17.0" transform="rotate(-90 35.4,-17.0)" font-size=".6">Chloe</text>
	<text x="36.4" y="-17.0" transform="rotate(-90 36.4,-17.0)" font-size=".6">Emma</text>
	<text x="37.4" y="-16.0" font-size=".6">Lucas</text>
	<text x="37.4" y="-15.0" font-size=".6">Louise</text>
	<text x="37.4" y="-14.0" font-size=".6">Nathan</text>
	<text x="37.4" y="-13.0" font-size=".6">Gabriel</text>
	<text x="37.4" y="-12.0" font-size=".6">Camille</text>
	<text x="37.4" y="-11.0" font-size=".6">Lea</text>
	<text x="37.4" y="-10.0" font-size=".6">Hugo</text>
	<text x="37.4" y="-9.0" font-size=".6">Sarah</text>
	<text x="37.4" y="-8.0" font-size=".6">Enzo</text>
	<text x="37.4" y="-7.0" font-size=".6">Chloe</text>
	<text x="37.4" y="-6.0" font-size=".6">Emma</text>
	<circle cx="24.9" cy="16.0" r="0.5" fill-opacity="0.0" style="stroke:rgb(0,0,0);stroke-width:0.1"/>	<circle cx="24.9" cy="6.5" r="0.5" fill-opacity="0.0" style="stroke:rgb(0,0,0);stroke-width:0.1"/>	<rect x="-16.5" y="6.0" width="11.0" height="11.0" fill="none" style="stroke:rgb(0,0,0);stroke-width:0.2"/>
	<rect x="-18.5" y="3.0" width="18.0" height="14.0" fill="none" style="stroke:rgb(0,0,0);stroke-width:0.2"/>
	<rect x="-14.167692" y="11.332308" width="0.13538462" height="0.13538462"/>
	<rect x="-13.167692" y="9.332308" width="0.13538462" height="0.13538462"/>
	<rect x="-14.223077" y="7.276923" width="0.24615386" height="0.24615386"/>
	<rect x="-16.167692" y="11.332308" width="0.13538462" height="0.13538462"/>
	<rect x="-16.278461" y="8.221539" width="0.35692307" height="0.35692307"/>
	<rect x="-15.167692" y="10.332308" width="0.13538462" height="0.13538462"/>
	<rect x="-15.223077" y="6.276923" width="0.24615386" height="0.24615386"/>
	<rect x="-15.14" y="7.36" width="0.080000006" height="0.080000006"/>
	<rect x="-11.167692" y="8.332308" width="0.13538462" height="0.13538462"/>
	<rect x="-12.167692" y="11.332308" width="0.13538462" height="0.13538462"/>
	<rect x="-16.167692" y="16.332308" width="0.13538462" height="0.13538462"/>
	<rect x="-16.223078" y="7.276923" width="0.24615386" height="0.24615386"/>
	<rect x="-11.167692" y="6.332308" width="0.13538462" height="0.13538462"/>
	<rect x="-14.223077" y="10.276923" width="0.24615386" height="0.24615386"/>
	<rect x="-14.278461" y="6.2215385" width="0.35692307" height="0.35692307"/>
	<rect x="-8.167692" y="16.332308" width="0.13538462" height="0.13538462"/>
	<rect x="-16.223078" y="10.276923" width="0.24615386" height="0.24615386"/>
	<rect x="-11.167692" y="10.332308" width="0.13538462" height="0.13538462"/>
	<rect x="-12.167692" y="7.332308" width="0.13538462" height="0.13538462"/>
	<rect x="-6.1953845" y="16.304615" width="0.19076924" height="0.19076924"/>
	<rect x="-15.223077" y="8.276923" width="0.24615386" height="0.24615386"/>
	<rect x="-12.223077" y="6.276923" width="0.24615386" height="0.24615386"/>
	<rect x="-16.167692" y="9.332308" width="0.13538462" height="0.13538462"/>
	<rect x="-6.167692" y="6.332308" width="0.13538462" height="0.13538462"/>
	<rect x="-11.167692" y="7.332308" width="0.13538462" height="0.13538462"/>
	<rect x="-10.14" y="12.36" width="0.080000006" height="0.080000006"/>
	<rect x="-6.167692" y="14.332308" width="0.13538462" height="0.13538462"/>
	<rect x="-13.167692" y="6.332308" width="0.13538462" height="0.13538462"/>
	<rect x="-12.14" y="10.36" width="0.080000006" height="0.080000006"/>
	<rect x="-9.14" y="13.36" width="0.080000006" height="0.080000006"/>
	<rect x="-12.223077" y="8.276923" width="0.24615386" height="0.24615386"/>
	<rect x="-15.167692" y="11.332308" width="0.13538462" height="0.13538462"/>
	<text x="-5.0" y="5.0" font-size=".9">2008</text>
	<text x="-16.0" y="5.5" transform="rotate(-90 -16.0,5.5)" font-size=".6">Lucas</text>
	<text x="-15.0" y="5.5" transform="rotate(-90 -15.0,5.5)" font-size=".6">Louise</text>
	<text x="-14.0" y="5.5" transform="rotate(-90 -14.0,5.5)" font-size=".6">Nathan</text>
	<text x="-13.0" y="5.5" transform="rotate(-90 -13.0,5.5)" font-size=".6">Gabriel</text>
	<text x="-12.0" y="5.5" transform="rotate(-90 -12.0,5.5)" font-size=".6">Camille</text>
	<text x="-11.0" y="5.5" transform="rotate(-90 -11.0,5.5)" font-size=".6">Lea</text>
	<text x="-10.0" y="5.5" transform="rotate(-90 -10.0,5.5)" font-size=".6">Hugo</text>
	<text x="-9.0" y="5.5" transform="rotate(-90 -9.0,5.5)" font-size=".6">Sarah</text>
	<text x="-8.0" y="5.5" transform="rotate(-90 -8.0,5.5)" font-size=".6">Enzo</text>
	<text x="-7.0" y="5.5" transform="rotate(-90 -7.0,5.5)" font-size=".6">Chloe</text>
	<text x="-6.0" y="5.5" transform="rotate(-90 -6.0,5.5)" font-size=".6">Emma</text>
	<text x="-5.0" y="6.5" font-size=".6">Lucas</text>
	<text x="-5.0" y="7.5" font-size=".6">Louise</text>
	<text x="-5.0" y="8.5" font-size=".6">Nathan</text>
	<text x="-5.0" y="9.5" font-size=".6">Gabriel</text>
	<text x="-5.0" y="10.5" font-size=".6">Camille</text>
	<text x="-5.0" y="11.5" font-size=".6">Lea</text>
	<text x="-5.0" y="12.5" font-size=".6">Hugo</text>
	<text x="-5.0" y="13.5" font-size=".6">Sarah</text>
	<text x="-5.0" y="14.5" font-size=".6">Enzo</text>
	<text x="-5.0" y="15.5" font-size=".6">Chloe</text>
	<text x="-5.0" y="16.5" font-size=".6">Emma</text>
	<circle cx="-17.5" cy="-6.5" r="0.5" fill-opacity="0.0" style="stroke:rgb(0,0,0);stroke-width:0.1"/>	<circle cx="-17.5" cy="-16.0" r="0.5" fill-opacity="0.0" style="stroke:rgb(0,0,0);stroke-width:0.1"/>	<rect x="4.7" y="6.0" width="11.0" height="11.0" fill="none" style="stroke:rgb(0,0,0);stroke-width:0.2"/>
	<rect x="2.6999998" y="3.0" width="18.0" height="14.0" fill="none" style="stroke:rgb(0,0,0);stroke-width:0.2"/>
	<rect x="7.0323076" y="11.332308" width="0.13538462" height="0.13538462"/>
	<rect x="11.976923" y="14.276923" width="0.24615386" height="0.24615386"/>
	<rect x="4.9215384" y="10.221539" width="0.35692307" height="0.35692307"/>
	<rect x="11.059999" y="12.36" width="0.080000006" height="0.080000006"/>
	<rect x="13.032308" y="7.332308" width="0.13538462" height="0.13538462"/>
	<rect x="5.976923" y="10.276923" width="0.24615386" height="0.24615386"/>
	<rect x="9.032308" y="11.332308" width="0.13538462" height="0.13538462"/>
	<rect x="6.0323076" y="13.332308" width="0.13538462" height="0.13538462"/>
	<rect x="7.810769" y="7.1107693" width="0.5784616" height="0.5784616"/>
	<rect x="12.032308" y="12.332308" width="0.13538462" height="0.13538462"/>
	<rect x="10.032308" y="6.332308" width="0.13538462" height="0.13538462"/>
	<rect x="4.8661537" y="8.166154" width="0.46769235" height="0.46769235"/>
	<rect x="5.810769" y="9.110769" width="0.5784616" height="0.5784616"/>
	<rect x="8.976923" y="8.276923" width="0.24615386" height="0.24615386"/>
	<rect x="13.032308" y="10.332308" width="0.13538462" height="0.13538462"/>
	<rect x="6.976923" y="9.276923" width="0.24615386" height="0.24615386"/>
	<rect x="10.032308" y="10.332308" width="0.13538462" height="0.13538462"/>
	<rect x="14.976923" y="16.276922" width="0.24615386" height="0.24615386"/>
	<rect x="7.976923" y="8.276923" width="0.24615386" height="0.24615386"/>
	<rect x="8.921538" y="6.2215385" width="0.35692307" height="0.35692307"/>
	<rect x="4.810769" y="9.110769" width="0.5784616" height="0.5784616"/>
	<rect x="5.0323076" y="13.332308" width="0.13538462" height="0.13538462"/>
	<rect x="4.976923" y="12.276923" width="0.24615386" height="0.24615386"/>
	<rect x="9.032308" y="14.332308" width="0.13538462" height="0.13538462"/>
	<rect x="10.976923" y="14.276923" width="0.24615386" height="0.24615386"/>
	<rect x="6.0323076" y="14.332308" width="0.13538462" height="0.13538462"/>
	<rect x="5.0323076" y="14.332308" width="0.13538462" height="0.13538462"/>
	<rect x="11.032308" y="7.332308" width="0.13538462" height="0.13538462"/>
	<rect x="13.032308" y="16.332308" width="0.13538462" height="0.13538462"/>
	<rect x="10.032308" y="8.332308" width="0.13538462" height="0.13538462"/>
	<rect x="12.032308" y="6.332308" width="0.13538462" height="0.13538462"/>
	<rect x="6.8661537" y="6.166154" width="0.46769235" height="0.46769235"/>
	<rect x="6.9215384" y="7.2215385" width="0.35692307" height="0.35692307"/>
	<rect x="12.976923" y="12.276923" width="0.24615386" height="0.24615386"/>
	<rect x="11.032308" y="13.332308" width="0.13538462" height="0.13538462"/>
	<rect x="6.0323076" y="12.332308" width="0.13538462" height="0.13538462"/>
	<rect x="12.032308" y="10.332308" width="0.13538462" height="0.13538462"/>
	<rect x="9.059999" y="10.36" width="0.080000006" height="0.080000006"/>
	<rect x="15.032308" y="14.332308" width="0.13538462" height="0.13538462"/>
	<rect x="13.032308" y="6.332308" width="0.13538462" height="0.13538462"/>
	<rect x="8.976923" y="7.276923" width="0.24615386" height="0.24615386"/>
	<rect x="5.7" y="6.0" width="0.8" height="0.8"/>
	<rect x="8.032308" y="9.332308" width="0.13538462" height="0.13538462"/>
	<rect x="11.032308" y="10.332308" width="0.13538462" height="0.13538462"/>
	<rect x="10.032308" y="7.332308" width="0.13538462" height="0.13538462"/>
	<rect x="5.0323076" y="11.332308" width="0.13538462" height="0.13538462"/>
	<rect x="5.9215384" y="8.221539" width="0.35692307" height="0.35692307"/>
	<rect x="12.032308" y="7.332308" width="0.13538462" height="0.13538462"/>
	<rect x="9.032308" y="12.332308" width="0.13538462" height="0.13538462"/>
	<rect x="6.976923" y="10.276923" width="0.24615386" height="0.24615386"/>
	<rect x="12.059999" y="13.36" width="0.080000006" height="0.080000006"/>
	<rect x="9.032308" y="13.332308" width="0.13538462" height="0.13538462"/>
	<rect x="7.810769" y="6.1107693" width="0.5784616" height="0.5784616"/>
	<rect x="4.7" y="7.0" width="0.8" height="0.8"/>
	<rect x="6.0323076" y="11.332308" width="0.13538462" height="0.13538462"/>
	<rect x="10.976923" y="6.276923" width="0.24615386" height="0.24615386"/>
	<rect x="12.976923" y="13.276923" width="0.24615386" height="0.24615386"/>
	<text x="16.2" y="5.0" font-size=".9">2009</text>
	<text x="5.2" y="5.5" transform="rotate(-90 5.2,5.5)" font-size=".6">Lucas</text>
	<text x="6.2" y="5.5" transform="rotate(-90 6.2,5.5)" font-size=".6">Louise</text>
	<text x="7.2" y="5.5" transform="rotate(-90 7.2,5.5)" font-size=".6">Nathan</text>
	<text x="8.2" y="5.5" transform="rotate(-90 8.2,5.5)" font-size=".6">Gabriel</text>
	<text x="9.2" y="5.5" transform="rotate(-90 9.2,5.5)" font-size=".6">Camille</text>
	<text x="10.2" y="5.5" transform="rotate(-90 10.2,5.5)" font-size=".6">Lea</text>
	<text x="11.2" y="5.5" transform="rotate(-90 11.2,5.5)" font-size=".6">Hugo</text>
	<text x="12.2" y="5.5" transform="rotate(-90 12.2,5.5)" font-size=".6">Sarah</text>
	<text x="13.2" y="5.5" transform="rotate(-90 13.2,5.5)" font-size=".6">Enzo</text>
	<text x="14.2" y="5.5" transform="rotate(-90 14.2,5.5)" font-size=".6">Chloe</text>
	<text x="15.2" y="5.5" transform="rotate(-90 15.2,5.5)" font-size=".6">Emma</text>
	<text x="16.2" y="6.5" font-size=".6">Lucas</text>
	<text x="16.2" y="7.5" font-size=".6">Louise</text>
	<text x="16.2" y="8.5" font-size=".6">Nathan</text>
	<text x="16.2" y="9.5" font-size=".6">Gabriel</text>
	<text x="16.2" y="10.5" font-size=".6">Camille</text>
	<text x="16.2" y="11.5" font-size=".6">Lea</text>
	<text x="16.2" y="12.5" font-size=".6">Hugo</text>
	<text x="16.2" y="13.5" font-size=".6">Sarah</text>
	<text x="16.2" y="14.5" font-size=".6">Enzo</text>
	<text x="16.2" y="15.5" font-size=".6">Chloe</text>
	<text x="16.2" y="16.5" font-size=".6">Emma</text>
	<circle cx="3.6999998" cy="-6.5" r="0.5" fill-opacity="0.0" style="stroke:rgb(0,0,0);stroke-width:0.1"/>	<circle cx="3.6999998" cy="-16.0" r="0.5" fill-opacity="0.0" style="stroke:rgb(0,0,0);stroke-width:0.1"/>	<rect x="25.9" y="6.0" width="11.0" height="11.0" fill="none" style="stroke:rgb(0,0,0);stroke-width:0.2"/>
	<rect x="23.9" y="3.0" width="18.0" height="14.0" fill="none" style="stroke:rgb(0,0,0);stroke-width:0.2"/>
	<rect x="34.260002" y="14.36" width="0.080000006" height="0.080000006"/>
	<rect x="34.232307" y="13.332308" width="0.13538462" height="0.13538462"/>
	<rect x="36.260002" y="16.36" width="0.080000006" height="0.080000006"/>
	<rect x="34.232307" y="7.332308" width="0.13538462" height="0.13538462"/>
	<rect x="28.176922" y="10.276923" width="0.24615386" height="0.24615386"/>
	<rect x="26.121538" y="8.221539" width="0.35692307" height="0.35692307"/>
	<rect x="33.232307" y="10.332308" width="0.13538462" height="0.13538462"/>
	<rect x="32.232307" y="7.332308" width="0.13538462" height="0.13538462"/>
	<rect x="25.9" y="7.0" width="0.8" height="0.8"/>
	<rect x="30.176922" y="7.276923" width="0.24615386" height="0.24615386"/>
	<rect x="29.232307" y="8.332308" width="0.13538462" height="0.13538462"/>
	<rect x="30.232307" y="14.332308" width="0.13538462" height="0.13538462"/>
	<rect x="28.176922" y="7.276923" width="0.24615386" height="0.24615386"/>
	<rect x="32.232307" y="13.332308" width="0.13538462" height="0.13538462"/>
	<rect x="27.232307" y="14.332308" width="0.13538462" height="0.13538462"/>
	<rect x="26.010769" y="9.110769" width="0.5784616" height="0.5784616"/>
	<rect x="34.232307" y="10.332308" width="0.13538462" height="0.13538462"/>
	<rect x="31.232307" y="10.332308" width="0.13538462" height="0.13538462"/>
	<rect x="30.232307" y="13.332308" width="0.13538462" height="0.13538462"/>
	<rect x="34.232307" y="12.332308" width="0.13538462" height="0.13538462"/>
	<rect x="28.232307" y="11.332308" width="0.13538462" height="0.13538462"/>
	<rect x="27.176922" y="8.276923" width="0.24615386" height="0.24615386"/>
	<rect x="29.232307" y="13.332308" width="0.13538462" height="0.13538462"/>
	<rect x="33.176926" y="6.276923" width="0.24615386" height="0.24615386"/>
	<rect x="30.232307" y="11.332308" width="0.13538462" height="0.13538462"/>
	<rect x="33.232307" y="12.332308" width="0.13538462" height="0.13538462"/>
	<rect x="34.232307" y="6.332308" width="0.13538462" height="0.13538462"/>
	<rect x="30.176922" y="8.276923" width="0.24615386" height="0.24615386"/>
	<rect x="27.176922" y="10.276923" width="0.24615386" height="0.24615386"/>
	<rect x="26.176922" y="13.276923" width="0.24615386" height="0.24615386"/>
	<rect x="33.176926" y="7.276923" width="0.24615386" height="0.24615386"/>
	<rect x="31.232307" y="6.332308" width="0.13538462" height="0.13538462"/>
	<rect x="35.260002" y="15.36" width="0.080000006" height="0.080000006"/>
	<rect x="32.232307" y="10.332308" width="0.13538462" height="0.13538462"/>
	<rect x="28.232307" y="9.332308" width="0.13538462" height="0.13538462"/>
	<rect x="33.232307" y="14.332308" width="0.13538462" height="0.13538462"/>
	<rect x="33.232307" y="9.332308" width="0.13538462" height="0.13538462"/>
	<rect x="30.121538" y="6.2215385" width="0.35692307" height="0.35692307"/>
	<rect x="30.232307" y="12.332308" width="0.13538462" height="0.13538462"/>
	<rect x="26.121538" y="12.221539" width="0.35692307" height="0.35692307"/>
	<rect x="31.232307" y="7.332308" width="0.13538462" height="0.13538462"/>
	<rect x="29.010769" y="6.1107693" width="0.5784616" height="0.5784616"/>
	<rect x="28.121538" y="6.2215385" width="0.35692307" height="0.35692307"/>
	<rect x="26.232307" y="11.332308" width="0.13538462" height="0.13538462"/>
	<rect x="28.955383" y="7.0553846" width="0.6892308" height="0.6892308"/>
	<rect x="27.232307" y="11.332308" width="0.13538462" height="0.13538462"/>
	<rect x="32.26" y="12.36" width="0.080000006" height="0.080000006"/>
	<rect x="32.232307" y="14.332308" width="0.13538462" height="0.13538462"/>
	<rect x="26.9" y="6.0" width="0.8" height="0.8"/>
	<rect x="26.232307" y="14.332308" width="0.13538462" height="0.13538462"/>
	<rect x="27.176922" y="13.276923" width="0.24615386" height="0.24615386"/>
	<rect x="26.955383" y="9.055385" width="0.6892308" height="0.6892308"/>
	<rect x="30.26" y="10.36" width="0.080000006" height="0.080000006"/>
	<rect x="27.232307" y="12.332308" width="0.13538462" height="0.13538462"/>
	<rect x="31.232307" y="8.332308" width="0.13538462" height="0.13538462"/>
	<rect x="26.121538" y="10.221539" width="0.35692307" height="0.35692307"/>
	<rect x="32.121536" y="6.2215385" width="0.35692307" height="0.35692307"/>
	<text x="37.4" y="5.0" font-size=".9">2010</text>
	<text x="26.4" y="5.5" transform="rotate(-90 26.4,5.5)" font-size=".6">Lucas</text>
	<text x="27.4" y="5.5" transform="rotate(-90 27.4,5.5)" font-size=".6">Louise</text>
	<text x="28.4" y="5.5" transform="rotate(-90 28.4,5.5)" font-size=".6">Nathan</text>
	<text x="29.4" y="5.5" transform="rotate(-90 29.4,5.5)" font-size=".6">Gabriel</text>
	<text x="30.4" y="5.5" transform="rotate(-90 30.4,5.5)" font-size=".6">Camille</text>
	<text x="31.4" y="5.5" transform="rotate(-90 31.4,5.5)" font-size=".6">Lea</text>
	<text x="32.4" y="5.5" transform="rotate(-90 32.4,5.5)" font-size=".6">Hugo</text>
	<text x="33.4" y="5.5" transform="rotate(-90 33.4,5.5)" font-size=".6">Sarah</text>
	<text x="34.4" y="5.5" transform="rotate(-90 34.4,5.5)" font-size=".6">Enzo</text>
	<text x="35.4" y="5.5" transform="rotate(-90 35.4,5.5)" font-size=".6">Chloe</text>
	<text x="36.4" y="5.5" transform="rotate(-90 36.4,5.5)" font-size=".6">Emma</text>
	<text x="37.4" y="6.5" font-size=".6">Lucas</text>
	<text x="37.4" y="7.5" font-size=".6">Louise</text>
	<text x="37.4" y="8.5" font-size=".6">Nathan</text>
	<text x="37.4" y="9.5" font-size=".6">Gabriel</text>
	<text x="37.4" y="10.5" font-size=".6">Camille</text>
	<text x="37.4" y="11.5" font-size=".6">Lea</text>
	<text x="37.4" y="12.5" font-size=".6">Hugo</text>
	<text x="37.4" y="13.5" font-size=".6">Sarah</text>
	<text x="37.4" y="14.5" font-size=".6">Enzo</text>
	<text x="37.4" y="15.5" font-size=".6">Chloe</text>
	<text x="37.4" y="16.5" font-size=".6">Emma</text>
	<circle cx="24.9" cy="-6.5" r="0.5" fill-opacity="0.0" style="stroke:rgb(0,0,0);stroke-width:0.1"/>	<circle cx="24.9" cy="-16.0" r="0.5" fill-opacity="0.0" style="stroke:rgb(0,0,0);stroke-width:0.1"/></svg>