<svg xmlns="http://www.w3.org/2000/svg" version="1.1">
	<rect x="-7.5" y="-19.25" width="6.0" height="11.0" fill="none" style="stroke:rgb(0,0,0);stroke-width:0.2"/>
	<rect x="-9.5" y="-22.25" width="13.0" height="14.0" fill="none" style="stroke:rgb(0,0,0);stroke-width:0.2"/>
	<rect x="-5.167692" y="-10.917692" width="0.13538462" height="0.13538462"/>
	<rect x="-3.1676922" y="-10.917692" width="0.13538462" height="0.13538462"/>
	<rect x="-4.167692" y="-13.917692" width="0.13538462" height="0.13538462"/>
	<rect x="-4.2784615" y="-17.028461" width="0.35692307" height="0.35692307"/>
	<rect x="-3.2784615" y="-15.028461" width="0.35692307" height="0.35692307"/>
	<rect x="-2.2784615" y="-17.028461" width="0.35692307" height="0.35692307"/>
	<rect x="-6.1953845" y="-18.945385" width="0.19076924" height="0.19076924"/>
	<rect x="-2.2230768" y="-11.973077" width="0.24615386" height="0.24615386"/>
	<rect x="-7.223077" y="-13.973077" width="0.24615386" height="0.24615386"/>
	<rect x="-4.167692" y="-8.917692" width="0.13538462" height="0.13538462"/>
	<rect x="-7.14" y="-18.89" width="0.080000006" height="0.080000006"/>
	<rect x="-2.5" y="-18.25" width="0.8" height="0.8"/>
	<rect x="-4.223077" y="-17.973078" width="0.24615386" height="0.24615386"/>
	<rect x="-5.333846" y="-18.083847" width="0.46769235" height="0.46769235"/>
	<rect x="-6.333846" y="-14.083846" width="0.46769235" height="0.46769235"/>
	<rect x="-6.167692" y="-17.917692" width="0.13538462" height="0.13538462"/>
	<rect x="-2.2784615" y="-13.028461" width="0.35692307" height="0.35692307"/>
	<rect x="-4.223077" y="-14.973077" width="0.24615386" height="0.24615386"/>
	<rect x="-2.1676922" y="-13.917692" width="0.13538462" height="0.13538462"/>
	<rect x="-3.333846" y="-17.083847" width="0.46769235" height="0.46769235"/>
	<rect x="-2.3892307" y="-16.13923" width="0.5784616" height="0.5784616"/>
	<rect x="-2.1676922" y="-10.917692" width="0.13538462" height="0.13538462"/>
	<rect x="-3.1676922" y="-13.917692" width="0.13538462" height="0.13538462"/>
	<rect x="-5.223077" y="-14.973077" width="0.24615386" height="0.24615386"/>
	<rect x="-5.333846" y="-17.083847" width="0.46769235" height="0.46769235"/>
	<rect x="-4.167692" y="-15.917692" width="0.13538462" height="0.13538462"/>
	<rect x="-5.167692" y="-9.917692" width="0.13538462" height="0.13538462"/>
	<rect x="-3.5" y="-18.25" width="0.8" height="0.8"/>
	<rect x="-5.333846" y="-14.083846" width="0.46769235" height="0.46769235"/>
	<rect x="-3.3892307" y="-16.13923" width="0.5784616" height="0.5784616"/>
	<rect x="-2.2784615" y="-15.028461" width="0.35692307" height="0.35692307"/>
	<rect x="-3.1676922" y="-11.917692" width="0.13538462" height="0.13538462"/>
	<rect x="-3.2230768" y="-12.973077" width="0.24615386" height="0.24615386"/>
	<rect x="-6.167692" y="-16.917692" width="0.13538462" height="0.13538462"/>
	<rect x="-5.167692" y="-8.917692" width="0.13538462" height="0.13538462"/>
	<text x="-1.0" y="-20.25" font-size=".9">Lucas</text>
	<text x="-7.0" y="-19.75" transform="rotate(-90 -7.0,-19.75)" font-size=".6">2005</text>
	<text x="-6.0" y="-19.75" transform="rotate(-90 -6.0,-19.75)" font-size=".6">2006</text>
	<text x="-5.0" y="-19.75" transform="rotate(-90 -5.0,-19.75)" font-size=".6">2007</text>
	<text x="-4.0" y="-19.75" transform="rotate(-90 -4.0,-19.75)" font-size=".6">2008</text>
	<text x="-3.0" y="-19.75" transform="rotate(-90 -3.0,-19.75)" font-size=".6">2009</text>
	<text x="-2.0" y="-19.75" transform="rotate(-90 -2.0,-19.75)" font-size=".6">2010</text>
	<text x="-1.0" y="-18.75" font-size=".6">Lucas</text>
	<text x="-1.0" y="-17.75" font-size=".6">Louise</text>
	<text x="-1.0" y="-16.75" font-size=".6">Nathan</text>
	<text x="-1.0" y="-15.75" font-size=".6">Gabriel</text>
	<text x="-1.0" y="-14.75" font-size=".6">Camille</text>
	<text x="-1.0" y="-13.75" font-size=".6">Lea</text>
	<text x="-1.0" y="-12.75" font-size=".6">Hugo</text>
	<text x="-1.0" y="-11.75" font-size=".6">Sarah</text>
	<text x="-1.0" y="-10.75" font-size=".6">Enzo</text>
	<text x="-1.0" y="-9.75" font-size=".6">Chloe</text>
	<text x="-1.0" y="-8.75" font-size=".6">Emma</text>
	<circle cx="-8.5" cy="-18.25" r="0.5" fill-opacity="0.0" style="stroke:rgb(0,0,0);stroke-width:0.1"/>	<circle cx="-8.5" cy="-9.25" r="0.5" fill-opacity="0.0" style="stroke:rgb(0,0,0);stroke-width:0.1"/>	<rect x="8.7" y="-19.25" width="6.0" height="11.0" fill="none" style="stroke:rgb(0,0,0);stroke-width:0.2"/>
	<rect x="6.7" y="-22.25" width="13.0" height="14.0" fill="none" style="stroke:rgb(0,0,0);stroke-width:0.2"/>
	<rect x="13.032308" y="-10.917692" width="0.13538462" height="0.13538462"/>
	<rect x="11.032308" y="-13.917692" width="0.13538462" height="0.13538462"/>
	<rect x="12.032308" y="-14.917692" width="0.13538462" height="0.13538462"/>
	<rect x="10.866154" y="-17.083847" width="0.46769235" height="0.46769235"/>
	<rect x="11.976923" y="-18.973078" width="0.24615386" height="0.24615386"/>
	<rect x="12.059999" y="-17.89" width="0.080000006" height="0.080000006"/>
	<rect x="13.976923" y="-14.973077" width="0.24615386" height="0.24615386"/>
	<rect x="10.976923" y="-14.973077" width="0.24615386" height="0.24615386"/>
	<rect x="10.032308" y="-16.917692" width="0.13538462" height="0.13538462"/>
	<rect x="12.976923" y="-14.973077" width="0.24615386" height="0.24615386"/>
	<rect x="13.032308" y="-12.917692" width="0.13538462" height="0.13538462"/>
	<rect x="9.032308" y="-17.917692" width="0.13538462" height="0.13538462"/>
	<rect x="13.032308" y="-11.917692" width="0.13538462" height="0.13538462"/>
	<rect x="10.032308" y="-18.917692" width="0.13538462" height="0.13538462"/>
	<rect x="10.866154" y="-19.083847" width="0.46769235" height="0.46769235"/>
	<rect x="14.032308" y="-13.917692" width="0.13538462" height="0.13538462"/>
	<rect x="14.032308" y="-10.917692" width="0.13538462" height="0.13538462"/>
	<rect x="12.7" y="-19.25" width="0.8" height="0.8"/>
	<rect x="13.7" y="-19.25" width="0.8" height="0.8"/>
	<rect x="12.810769" y="-16.13923" width="0.5784616" height="0.5784616"/>
	<rect x="13.976923" y="-11.973077" width="0.24615386" height="0.24615386"/>
	<rect x="11.059999" y="-17.89" width="0.080000006" height="0.080000006"/>
	<rect x="13.755384" y="-16.194616" width="0.6892308" height="0.6892308"/>
	<rect x="14.032308" y="-12.917692" width="0.13538462" height="0.13538462"/>
	<rect x="11.976923" y="-16.973078" width="0.24615386" height="0.24615386"/>
	<rect x="12.921538" y="-17.028461" width="0.35692307" height="0.35692307"/>
	<rect x="13.976923" y="-16.973078" width="0.24615386" height="0.24615386"/>
	<rect x="13.032308" y="-13.917692" width="0.13538462" height="0.13538462"/>
	<rect x="11.032308" y="-9.917692" width="0.13538462" height="0.13538462"/>
	<rect x="10.059999" y="-17.89" width="0.080000006" height="0.080000006"/>
	<rect x="12.032308" y="-13.917692" width="0.13538462" height="0.13538462"/>
	<text x="15.2" y="-20.25" font-size=".9">Louise</text>
	<text x="9.2" y="-19.75" transform="rotate(-90 9.2,-19.75)" font-size=".6">2005</text>
	<text x="10.2" y="-19.75" transform="rotate(-90 10.2,-19.75)" font-size=".6">2006</text>
	<text x="11.2" y="-19.75" transform="rotate(-90 11.2,-19.75)" font-size=".6">2007</text>
	<text x="12.2" y="-19.75" transform="rotate(-90 12.2,-19.75)" font-size=".6">2008</text>
	<text x="13.2" y="-19.75" transform="rotate(-90 13.2,-19.75)" font-size=".6">2009</text>
	<text x="14.2" y="-19.75" transform="rotate(-90 14.2,-19.75)" font-size=".6">2010</text>
	<text x="15.2" y="-18.75" font-size=".6">Lucas</text>
	<text x="15.2" y="-17.75" font-size=".6">Louise</text>
	<text x="15.2" y="-16.75" font-size=".6">Nathan</text>
	<text x="15.2" y="-15.75" font-size=".6">Gabriel</text>
	<text x="15.2" y="-14.75" font-size=".6">Camille</text>
	<text x="15.2" y="-13.75" font-size=".6">Lea</text>
	<text x="15.2" y="-12.75" font-size=".6">Hugo</text>
	<text x="15.2" y="-11.75" font-size=".6">Sarah</text>
	<text x="15.2" y="-10.75" font-size=".6">Enzo</text>
	<text x="15.2" y="-9.75" font-size=".6">Chloe</text>
	<text x="15.2" y="-8.75" font-size=".6">Emma</text>
	<circle cx="7.7" cy="-18.25" r="0.5" fill-opacity="0.0" style="stroke:rgb(0,0,0);stroke-width:0.1"/>	<circle cx="7.7" cy="-9.25" r="0.5" fill-opacity="0.0" style="stroke:rgb(0,0,0);stroke-width:0.1"/>	<rect x="24.9" y="-19.25" width="6.0" height="11.0" fill="none" style="stroke:rgb(0,0,0);stroke-width:0.2"/>
	<rect x="22.9" y="-22.25" width="13.0" height="14.0" fill="none" style="stroke:rgb(0,0,0);stroke-width:0.2"/>
	<rect x="30.176922" y="-17.973078" width="0.24615386" height="0.24615386"/>
	<rect x="25.26" y="-16.89" width="0.080000006" height="0.080000006"/>
	<rect x="28.232307" y="-13.917692" width="0.13538462" height="0.13538462"/>
	<rect x="30.121538" y="-19.028461" width="0.35692307" height="0.35692307"/>
	<rect x="27.176922" y="-14.973077" width="0.24615386" height="0.24615386"/>
	<rect x="28.176922" y="-17.973078" width="0.24615386" height="0.24615386"/>
	<rect x="29.232307" y="-13.917692" width="0.13538462" height="0.13538462"/>
	<rect x="27.066153" y="-18.083847" width="0.46769235" height="0.46769235"/>
	<rect x="30.176922" y="-14.973077" width="0.24615386" height="0.24615386"/>
	<rect x="27.232307" y="-13.917692" width="0.13538462" height="0.13538462"/>
	<rect x="29.066153" y="-19.083847" width="0.46769235" height="0.46769235"/>
	<rect x="29.121538" y="-18.028461" width="0.35692307" height="0.35692307"/>
	<rect x="26.232307" y="-17.917692" width="0.13538462" height="0.13538462"/>
	<rect x="29.176922" y="-15.973077" width="0.24615386" height="0.24615386"/>
	<rect x="29.176922" y="-14.973077" width="0.24615386" height="0.24615386"/>
	<rect x="30.232307" y="-13.917692" width="0.13538462" height="0.13538462"/>
	<rect x="30.232307" y="-15.917692" width="0.13538462" height="0.13538462"/>
	<rect x="27.066153" y="-19.083847" width="0.46769235" height="0.46769235"/>
	<rect x="27.232307" y="-9.917692" width="0.13538462" height="0.13538462"/>
	<rect x="26.232307" y="-18.917692" width="0.13538462" height="0.13538462"/>
	<rect x="28.176922" y="-14.973077" width="0.24615386" height="0.24615386"/>
	<rect x="28.121538" y="-19.028461" width="0.35692307" height="0.35692307"/>
	<text x="31.4" y="-20.25" font-size=".9">Nathan</text>
	<text x="25.4" y="-19.75" transform="rotate(-90 25.4,-19.75)" font-size=".6">2005</text>
	<text x="26.4" y="-19.75" transform="rotate(-90 26.4,-19.75)" font-size=".6">2006</text>
	<text x="27.4" y="-19.75" transform="rotate(-90 27.4,-19.75)" font-size=".6">2007</text>
	<text x="28.4" y="-19.75" transform="rotate(-90 28.4,-19.75)" font-size=".6">2008</text>
	<text x="29.4" y="-19.75" transform="rotate(-90 29.4,-19.75)" font-size=".6">2009</text>
	<text x="30.4" y="-19.75" transform="rotate(-90 30.4,-19.75)" font-size=".6">2010</text>
	<text x="31.4" y="-18.75" font-size=".6">Lucas</text>
	<text x="31.4" y="-17.75" font-size=".6">Louise</text>
	<text x="31.4" y="-16.75" font-size=".6">Nathan</text>
	<text x="31.4" y="-15.75" font-size=".6">Gabriel</text>
	<text x="31.4" y="-14.75" font-size=".6">Camille</text>
	<text x="31.4" y="-13.75" font-size=".6">Lea</text>
	<text x="31.4" y="-12.75" font-size=".6">Hugo</text>
	<text x="31.4" y="-11.75" font-size=".6">Sarah</text>
	<text x="31.4" y="-10.75" font-size=".6">Enzo</text>
	<text x="31.4" y="-9.75" font-size=".6">Chloe</text>
	<text x="31.4" y="-8.75" font-size=".6">Emma</text>
	<circle cx="23.9" cy="-18.25" r="0.5" fill-opacity="0.0" style="stroke:rgb(0,0,0);stroke-width:0.1"/>	<circle cx="23.9" cy="-9.25" r="0.5" fill-opacity="0.0" style="stroke:rgb(0,0,0);stroke-width:0.1"/>	<rect x="41.1" y="-19.25" width="6.0" height="11.0" fill="none" style="stroke:rgb(0,0,0);stroke-width:0.2"/>
	<rect x="39.1" y="-22.25" width="13.0" height="14.0" fill="none" style="stroke:rgb(0,0,0);stroke-width:0.2"/>
	<rect x="44.432304" y="-15.917692" width="0.13538462" height="0.13538462"/>
	<rect x="46.210766" y="-19.13923" width="0.5784616" height="0.5784616"/>
	<rect x="46.155384" y="-18.194616" width="0.6892308" height="0.6892308"/>
	<rect x="45.376923" y="-16.973078" width="0.24615386" height="0.24615386"/>
	<rect x="44.432304" y="-18.917692" width="0.13538462" height="0.13538462"/>
	<rect x="45.210766" y="-19.13923" width="0.5784616" height="0.5784616"/>
	<rect x="46.432304" y="-16.917692" width="0.13538462" height="0.13538462"/>
	<rect x="45.432304" y="-15.917692" width="0.13538462" height="0.13538462"/>
	<rect x="46.432304" y="-11.917692" width="0.13538462" height="0.13538462"/>
	<rect x="45.210766" y="-18.13923" width="0.5784616" height="0.5784616"/>
	<text x="47.6" y="-20.25" font-size=".9">Gabriel</text>
	<text x="41.6" y="-19.75" transform="rotate(-90 41.6,-19.75)" font-size=".6">2005</text>
	<text x="42.6" y="-19.75" transform="rotate(-90 42.6,-19.75)" font-size=".6">2006</text>
	<text x="43.6" y="-19.75" transform="rotate(-90 43.6,-19.75)" font-size=".6">2007</text>
	<text x="44.6" y="-19.75" transform="rotate(-90 44.6,-19.75)" font-size=".6">2008</text>
	<text x="45.6" y="-19.75" transform="rotate(-90 45.6,-19.75)" font-size=".6">2009</text>
	<text x="46.6" y="-19.75" transform="rotate(-90 46.6,-19.75)" font-size=".6">2010</text>
	<text x="47.6" y="-18.75" font-size=".6">Lucas</text>
	<text x="47.6" y="-17.75" font-size=".6">Louise</text>
	<text x="47.6" y="-16.75" font-size=".6">Nathan</text>
	<text x="47.6" y="-15.75" font-size=".6">Gabriel</text>
	<text x="47.6" y="-14.75" font-size=".6">Camille</text>
	<text x="47.6" y="-13.75" font-size=".6">Lea</text>
	<text x="47.6" y="-12.75" font-size=".6">Hugo</text>
	<text x="47.6" y="-11.75" font-size=".6">Sarah</text>
	<text x="47.6" y="-10.75" font-size=".6">Enzo</text>
	<text x="47.6" y="-9.75" font-size=".6">Chloe</text>
	<text x="47.6" y="-8.75" font-size=".6">Emma</text>
	<circle cx="40.1" cy="-18.25" r="0.5" fill-opacity="0.0" style="stroke:rgb(0,0,0);stroke-width:0.1"/>	<circle cx="40.1" cy="-9.25" r="0.5" fill-opacity="0.0" style="stroke:rgb(0,0,0);stroke-width:0.1"/>	<rect x="57.3" y="-19.25" width="6.0" height="11.0" fill="none" style="stroke:rgb(0,0,0);stroke-width:0.2"/>
	<rect x="55.3" y="-22.25" width="13.0" height="14.0" fill="none" style="stroke:rgb(0,0,0);stroke-width:0.2"/>
	<rect x="59.66" y="-14.89" width="0.080000006" height="0.080000006"/>
	<rect x="62.576923" y="-16.973078" width="0.24615386" height="0.24615386"/>
	<rect x="60.632305" y="-13.917692" width="0.13538462" height="0.13538462"/>
	<rect x="62.576923" y="-17.973078" width="0.24615386" height="0.24615386"/>
	<rect x="61.632305" y="-13.917692" width="0.13538462" height="0.13538462"/>
	<rect x="61.66" y="-14.89" width="0.080000006" height="0.080000006"/>
	<rect x="62.521538" y="-19.028461" width="0.35692307" height="0.35692307"/>
	<rect x="62.632305" y="-12.917692" width="0.13538462" height="0.13538462"/>
	<rect x="62.632305" y="-10.917692" width="0.13538462" height="0.13538462"/>
	<rect x="59.576923" y="-18.973078" width="0.24615386" height="0.24615386"/>
	<rect x="59.576923" y="-16.973078" width="0.24615386" height="0.24615386"/>
	<rect x="61.576923" y="-17.973078" width="0.24615386" height="0.24615386"/>
	<rect x="60.632305" y="-17.917692" width="0.13538462" height="0.13538462"/>
	<rect x="61.576923" y="-16.973078" width="0.24615386" height="0.24615386"/>
	<rect x="59.632305" y="-13.917692" width="0.13538462" height="0.13538462"/>
	<rect x="62.66" y="-14.89" width="0.080000006" height="0.080000006"/>
	<rect x="60.576923" y="-18.973078" width="0.24615386" height="0.24615386"/>
	<rect x="61.632305" y="-12.917692" width="0.13538462" height="0.13538462"/>
	<rect x="62.632305" y="-11.917692" width="0.13538462" height="0.13538462"/>
	<rect x="61.632305" y="-11.917692" width="0.13538462" height="0.13538462"/>
	<rect x="59.632305" y="-9.917692" width="0.13538462" height="0.13538462"/>
	<rect x="60.66" y="-14.89" width="0.080000006" height="0.080000006"/>
	<rect x="61.521538" y="-19.028461" width="0.35692307" height="0.35692307"/>
	<rect x="59.576923" y="-17.973078" width="0.24615386" height="0.24615386"/>
	<rect x="60.576923" y="-16.973078" width="0.24615386" height="0.24615386"/>
	<rect x="62.632305" y="-13.917692" width="0.13538462" height="0.13538462"/>
	<rect x="61.632305" y="-10.917692" width="0.13538462" height="0.13538462"/>
	<text x="63.8" y="-20.25" font-size=".9">Camille</text>
	<text x="57.8" y="-19.75" transform="rotate(-90 57.8,-19.75)" font-size=".6">2005</text>
	<text x="58.8" y="-19.75" transform="rotate(-90 58.8,-19.75)" font-size=".6">2006</text>
	<text x="59.8" y="-19.75" transform="rotate(-90 59.8,-19.75)" font-size=".6">2007</text>
	<text x="60.8" y="-19.75" transform="rotate(-90 60.8,-19.75)" font-size=".6">2008</text>
	<text x="61.8" y="-19.75" transform="rotate(-90 61.8,-19.75)" font-size=".6">2009</text>
	<text x="62.8" y="-19.75" transform="rotate(-90 62.8,-19.75)" font-size=".6">2010</text>
	<text x="63.8" y="-18.75" font-size=".6">Lucas</text>
	<text x="63.8" y="-17.75" font-size=".6">Louise</text>
	<text x="63.8" y="-16.75" font-size=".6">Nathan</text>
	<text x="63.8" y="-15.75" font-size=".6">Gabriel</text>
	<text x="63.8" y="-14.75" font-size=".6">Camille</text>
	<text x="63.8" y="-13.75" font-size=".6">Lea</text>
	<text x="63.8" y="-12.75" font-size=".6">Hugo</text>
	<text x="63.8" y="-11.75" font-size=".6">Sarah</text>
	<text x="63.8" y="-10.75" font-size=".6">Enzo</text>
	<text x="63.8" y="-9.75" font-size=".6">Chloe</text>
	<text x="63.8" y="-8.75" font-size=".6">Emma</text>
	<circle cx="56.3" cy="-18.25" r="0.5" fill-opacity="0.0" style="stroke:rgb(0,0,0);stroke-width:0.1"/>	<circle cx="56.3" cy="-9.25" r="0.5" fill-opacity="0.0" style="stroke:rgb(0,0,0);stroke-width:0.1"/>	<rect x="73.5" y="-19.25" width="6.0" height="11.0" fill="none" style="stroke:rgb(0,0,0);stroke-width:0.2"/>
	<rect x="71.5" y="-22.25" width="13.0" height="14.0" fill="none" style="stroke:rgb(0,0,0);stroke-width:0.2"/>
	<rect x="74.66615" y="-19.083847" width="0.46769235" height="0.46769235"/>
	<rect x="75.832306" y="-8.917692" width="0.13538462" height="0.13538462"/>
	<rect x="75.832306" y="-14.917692" width="0.13538462" height="0.13538462"/>
	<rect x="76.832306" y="-14.917692" width="0.13538462" height="0.13538462"/>
	<rect x="75.832306" y="-9.917692" width="0.13538462" height="0.13538462"/>
	<rect x="77.832306" y="-18.917692" width="0.13538462" height="0.13538462"/>
	<rect x="73.86" y="-13.89" width="0.080000006" height="0.080000006"/>
	<rect x="75.832306" y="-10.917692" width="0.13538462" height="0.13538462"/>
	<rect x="77.832306" y="-16.917692" width="0.13538462" height="0.13538462"/>
	<rect x="76.832306" y="-16.917692" width="0.13538462" height="0.13538462"/>
	<rect x="77.832306" y="-17.917692" width="0.13538462" height="0.13538462"/>
	<rect x="78.832306" y="-14.917692" width="0.13538462" height="0.13538462"/>
	<rect x="78.832306" y="-18.917692" width="0.13538462" height="0.13538462"/>
	<rect x="73.776924" y="-18.973078" width="0.24615386" height="0.24615386"/>
	<rect x="77.832306" y="-14.917692" width="0.13538462" height="0.13538462"/>
	<rect x="76.832306" y="-17.917692" width="0.13538462" height="0.13538462"/>
	<rect x="75.66615" y="-19.083847" width="0.46769235" height="0.46769235"/>
	<rect x="78.832306" y="-16.917692" width="0.13538462" height="0.13538462"/>
	<rect x="76.832306" y="-18.917692" width="0.13538462" height="0.13538462"/>
	<rect x="75.832306" y="-17.917692" width="0.13538462" height="0.13538462"/>
	<rect x="75.832306" y="-16.917692" width="0.13538462" height="0.13538462"/>
	<rect x="78.832306" y="-17.917692" width="0.13538462" height="0.13538462"/>
	<text x="80.0" y="-20.25" font-size=".9">Lea</text>
	<text x="74.0" y="-19.75" transform="rotate(-90 74.0,-19.75)" font-size=".6">2005</text>
	<text x="75.0" y="-19.75" transform="rotate(-90 75.0,-19.75)" font-size=".6">2006</text>
	<text x="76.0" y="-19.75" transform="rotate(-90 76.0,-19.75)" font-size=".6">2007</text>
	<text x="77.0" y="-19.75" transform="rotate(-90 77.0,-19.75)" font-size=".6">2008</text>
	<text x="78.0" y="-19.75" transform="rotate(-90 78.0,-19.75)" font-size=".6">2009</text>
	<text x="79.0" y="-19.75" transform="rotate(-90 79.0,-19.75)" font-size=".6">2010</text>
	<text x="80.0" y="-18.75" font-size=".6">Lucas</text>
	<text x="80.0" y="-17.75" font-size=".6">Louise</text>
	<text x="80.0" y="-16.75" font-size=".6">Nathan</text>
	<text x="80.0" y="-15.75" font-size=".6">Gabriel</text>
	<text x="80.0" y="-14.75" font-size=".6">Camille</text>
	<text x="80.0" y="-13.75" font-size=".6">Lea</text>
	<text x="80.0" y="-12.75" font-size=".6">Hugo</text>
	<text x="80.0" y="-11.75" font-size=".6">Sarah</text>
	<text x="80.0" y="-10.75" font-size=".6">Enzo</text>
	<text x="80.0" y="-9.75" font-size=".6">Chloe</text>
	<text x="80.0" y="-8.75" font-size=".6">Emma</text>
	<circle cx="72.5" cy="-18.25" r="0.5" fill-opacity="0.0" style="stroke:rgb(0,0,0);stroke-width:0.1"/>	<circle cx="72.5" cy="-9.25" r="0.5" fill-opacity="0.0" style="stroke:rgb(0,0,0);stroke-width:0.1"/>	<rect x="-7.499996" y="3.25" width="6.0" height="11.0" fill="none" style="stroke:rgb(0,0,0);stroke-width:0.2"/>
	<rect x="-9.499996" y="0.25" width="13.0" height="14.0" fill="none" style="stroke:rgb(0,0,0);stroke-width:0.2"/>
	<rect x="-3.223073" y="11.526923" width="0.24615386" height="0.24615386"/>
	<rect x="-5.1676884" y="9.582308" width="0.13538462" height="0.13538462"/>
	<rect x="-2.1676884" y="10.582308" width="0.13538462" height="0.13538462"/>
	<rect x="-3.1676884" y="4.582308" width="0.13538462" height="0.13538462"/>
	<rect x="-2.139996" y="9.61" width="0.080000006" height="0.080000006"/>
	<rect x="-2.1676884" y="11.582308" width="0.13538462" height="0.13538462"/>
	<rect x="-3.1676884" y="7.582308" width="0.13538462" height="0.13538462"/>
	<rect x="-3.139996" y="9.61" width="0.080000006" height="0.080000006"/>
	<rect x="-3.1676884" y="10.582308" width="0.13538462" height="0.13538462"/>
	<rect x="-2.1676884" y="4.582308" width="0.13538462" height="0.13538462"/>
	<rect x="-2.1676884" y="7.582308" width="0.13538462" height="0.13538462"/>
	<rect x="-4.139996" y="9.61" width="0.080000006" height="0.080000006"/>
	<rect x="-2.2784576" y="3.4715385" width="0.35692307" height="0.35692307"/>
	<rect x="-3.223073" y="3.5269232" width="0.24615386" height="0.24615386"/>
	<text x="-0.9999962" y="2.25" font-size=".9">Hugo</text>
	<text x="-6.999996" y="2.75" transform="rotate(-90 -6.999996,2.75)" font-size=".6">2005</text>
	<text x="-5.999996" y="2.75" transform="rotate(-90 -5.999996,2.75)" font-size=".6">2006</text>
	<text x="-4.999996" y="2.75" transform="rotate(-90 -4.999996,2.75)" font-size=".6">2007</text>
	<text x="-3.9999962" y="2.75" transform="rotate(-90 -3.9999962,2.75)" font-size=".6">2008</text>
	<text x="-2.9999962" y="2.75" transform="rotate(-90 -2.9999962,2.75)" font-size=".6">2009</text>
	<text x="-1.9999962" y="2.75" transform="rotate(-90 -1.9999962,2.75)" font-size=".6">2010</text>
	<text x="-0.9999962" y="3.75" font-size=".6">Lucas</text>
	<text x="-0.9999962" y="4.75" font-size=".6">Louise</text>
	<text x="-0.9999962" y="5.75" font-size=".6">Nathan</text>
	<text x="-0.9999962" y="6.75" font-size=".6">Gabriel</text>
	<text x="-0.9999962" y="7.75" font-size=".6">Camille</text>
	<text x="-0.9999962" y="8.75" font-size=".6">Lea</text>
	<text x="-0.9999962" y="9.75" font-size=".6">Hugo</text>
	<text x="-0.9999962" y="10.75" font-size=".6">Sarah</text>
	<text x="-0.9999962" y="11.75" font-size=".6">Enzo</text>
	<text x="-0.9999962" y="12.75" font-size=".6">Chloe</text>
	<text x="-0.9999962" y="13.75" font-size=".6">Emma</text>
	<circle cx="-8.499996" cy="4.25" r="0.5" fill-opacity="0.0" style="stroke:rgb(0,0,0);stroke-width:0.1"/>	<circle cx="-8.499996" cy="13.25" r="0.5" fill-opacity="0.0" style="stroke:rgb(0,0,0);stroke-width:0.1"/>	<rect x="8.700004" y="3.25" width="6.0" height="11.0" fill="none" style="stroke:rgb(0,0,0);stroke-width:0.2"/>
	<rect x="6.7000036" y="0.25" width="13.0" height="14.0" fill="none" style="stroke:rgb(0,0,0);stroke-width:0.2"/>
	<rect x="12.976927" y="11.526923" width="0.24615386" height="0.24615386"/>
	<rect x="14.032311" y="9.582308" width="0.13538462" height="0.13538462"/>
	<rect x="13.032311" y="9.582308" width="0.13538462" height="0.13538462"/>
	<rect x="13.032311" y="3.5823078" width="0.13538462" height="0.13538462"/>
	<rect x="13.976927" y="4.526923" width="0.24615386" height="0.24615386"/>
	<rect x="13.032311" y="4.582308" width="0.13538462" height="0.13538462"/>
	<rect x="13.060003" y="10.61" width="0.080000006" height="0.080000006"/>
	<rect x="14.032311" y="7.582308" width="0.13538462" height="0.13538462"/>
	<rect x="13.032311" y="7.582308" width="0.13538462" height="0.13538462"/>
	<rect x="11.060003" y="10.61" width="0.080000006" height="0.080000006"/>
	<rect x="14.032311" y="11.582308" width="0.13538462" height="0.13538462"/>
	<rect x="12.060003" y="10.61" width="0.080000006" height="0.080000006"/>
	<rect x="14.032311" y="6.582308" width="0.13538462" height="0.13538462"/>
	<rect x="13.976927" y="3.5269232" width="0.24615386" height="0.24615386"/>
	<text x="15.200004" y="2.25" font-size=".9">Sarah</text>
	<text x="9.200004" y="2.75" transform="rotate(-90 9.200004,2.75)" font-size=".6">2005</text>
	<text x="10.200004" y="2.75" transform="rotate(-90 10.200004,2.75)" font-size=".6">2006</text>
	<text x="11.200004" y="2.75" transform="rotate(-90 11.200004,2.75)" font-size=".6">2007</text>
	<text x="12.200004" y="2.75" transform="rotate(-90 12.200004,2.75)" font-size=".6">2008</text>
	<text x="13.200004" y="2.75" transform="rotate(-90 13.200004,2.75)" font-size=".6">2009</text>
	<text x="14.200004" y="2.75" transform="rotate(-90 14.200004,2.75)" font-size=".6">2010</text>
	<text x="15.200004" y="3.75" font-size=".6">Lucas</text>
	<text x="15.200004" y="4.75" font-size=".6">Louise</text>
	<text x="15.200004" y="5.75" font-size=".6">Nathan</text>
	<text x="15.200004" y="6.75" font-size=".6">Gabriel</text>
	<text x="15.200004" y="7.75" font-size=".6">Camille</text>
	<text x="15.200004" y="8.75" font-size=".6">Lea</text>
	<text x="15.200004" y="9.75" font-size=".6">Hugo</text>
	<text x="15.200004" y="10.75" font-size=".6">Sarah</text>
	<text x="15.200004" y="11.75" font-size=".6">Enzo</text>
	<text x="15.200004" y="12.75" font-size=".6">Chloe</text>
	<text x="15.200004" y="13.75" font-size=".6">Emma</text>
	<circle cx="7.7000036" cy="4.25" r="0.5" fill-opacity="0.0" style="stroke:rgb(0,0,0);stroke-width:0.1"/>	<circle cx="7.7000036" cy="13.25" r="0.5" fill-opacity="0.0" style="stroke:rgb(0,0,0);stroke-width:0.1"/>	<rect x="24.900003" y="3.25" width="6.0" height="11.0" fill="none" style="stroke:rgb(0,0,0);stroke-width:0.2"/>
	<rect x="22.900003" y="0.25" width="13.0" height="14.0" fill="none" style="stroke:rgb(0,0,0);stroke-width:0.2"/>
	<rect x="30.260004" y="11.61" width="0.080000006" height="0.080000006"/>
	<rect x="30.232311" y="10.582308" width="0.13538462" height="0.13538462"/>
	<rect x="27.232311" y="3.5823078" width="0.13538462" height="0.13538462"/>
	<rect x="30.232311" y="4.582308" width="0.13538462" height="0.13538462"/>
	<rect x="29.232311" y="3.5823078" width="0.13538462" height="0.13538462"/>
	<rect x="29.232311" y="13.582308" width="0.13538462" height="0.13538462"/>
	<rect x="30.232311" y="3.5823078" width="0.13538462" height="0.13538462"/>
	<rect x="30.232311" y="7.582308" width="0.13538462" height="0.13538462"/>
	<rect x="29.232311" y="7.582308" width="0.13538462" height="0.13538462"/>
	<rect x="29.176926" y="9.526923" width="0.24615386" height="0.24615386"/>
	<rect x="29.232311" y="4.582308" width="0.13538462" height="0.13538462"/>
	<rect x="30.232311" y="9.582308" width="0.13538462" height="0.13538462"/>
	<rect x="27.260004" y="11.61" width="0.080000006" height="0.080000006"/>
	<rect x="27.232311" y="8.582308" width="0.13538462" height="0.13538462"/>
	<rect x="29.176926" y="10.526923" width="0.24615386" height="0.24615386"/>
	<rect x="28.232311" y="13.582308" width="0.13538462" height="0.13538462"/>
	<text x="31.400003" y="2.25" font-size=".9">Enzo</text>
	<text x="25.400003" y="2.75" transform="rotate(-90 25.400003,2.75)" font-size=".6">2005</text>
	<text x="26.400003" y="2.75" transform="rotate(-90 26.400003,2.75)" font-size=".6">2006</text>
	<text x="27.400003" y="2.75" transform="rotate(-90 27.400003,2.75)" font-size=".6">2007</text>
	<text x="28.400003" y="2.75" transform="rotate(-90 28.400003,2.75)" font-size=".6">2008</text>
	<text x="29.400003" y="2.75" transform="rotate(-90 29.400003,2.75)" font-size=".6">2009</text>
	<text x="30.400003" y="2.75" transform="rotate(-90 30.400003,2.75)" font-size=".6">2010</text>
	<text x="31.400003" y="3.75" font-size=".6">Lucas</text>
	<text x="31.400003" y="4.75" font-size=".6">Louise</text>
	<text x="31.400003" y="5.75" font-size=".6">Nathan</text>
	<text x="31.400003" y="6.75" font-size=".6">Gabriel</text>
	<text x="31.400003" y="7.75" font-size=".6">Camille</text>
	<text x="31.400003" y="8.75" font-size=".6">Lea</text>
	<text x="31.400003" y="9.75" font-size=".6">Hugo</text>
	<text x="31.400003" y="10.75" font-size=".6">Sarah</text>
	<text x="31.400003" y="11.75" font-size=".6">Enzo</text>
	<text x="31.400003" y="12.75" font-size=".6">Chloe</text>
	<text x="31.400003" y="13.75" font-size=".6">Emma</text>
	<circle cx="23.900003" cy="4.25" r="0.5" fill-opacity="0.0" style="stroke:rgb(0,0,0);stroke-width:0.1"/>	<circle cx="23.900003" cy="13.25" r="0.5" fill-opacity="0.0" style="stroke:rgb(0,0,0);stroke-width:0.1"/>	<rect x="41.100002" y="3.25" width="6.0" height="11.0" fill="none" style="stroke:rgb(0,0,0);stroke-width:0.2"/>
	<rect x="39.100002" y="0.25" width="13.0" height="14.0" fill="none" style="stroke:rgb(0,0,0);stroke-width:0.2"/>
	<rect x="43.43231" y="7.582308" width="0.13538462" height="0.13538462"/>
	<rect x="43.43231" y="5.582308" width="0.13538462" height="0.13538462"/>
	<rect x="43.460003" y="12.61" width="0.080000006" height="0.080000006"/>
	<rect x="46.460003" y="12.61" width="0.080000006" height="0.080000006"/>
	<rect x="43.43231" y="8.582308" width="0.13538462" height="0.13538462"/>
	<rect x="43.43231" y="4.582308" width="0.13538462" height="0.13538462"/>
	<rect x="43.43231" y="3.5823078" width="0.13538462" height="0.13538462"/>
	<text x="47.600002" y="2.25" font-size=".9">Chloe</text>
	<text x="41.600002" y="2.75" transform="rotate(-90 41.600002,2.75)" font-size=".6">2005</text>
	<text x="42.600002" y="2.75" transform="rotate(-90 42.600002,2.75)" font-size=".6">2006</text>
	<text x="43.600002" y="2.75" transform="rotate(-90 43.600002,2.75)" font-size=".6">2007</text>
	<text x="44.600002" y="2.75" transform="rotate(-90 44.600002,2.75)" font-size=".6">2008</text>
	<text x="45.600002" y="2.75" transform="rotate(-90 45.600002,2.75)" font-size=".6">2009</text>
	<text x="46.600002" y="2.75" transform="rotate(-90 46.600002,2.75)" font-size=".6">2010</text>
	<text x="47.600002" y="3.75" font-size=".6">Lucas</text>
	<text x="47.600002" y="4.75" font-size=".6">Louise</text>
	<text x="47.600002" y="5.75" font-size=".6">Nathan</text>
	<text x="47.600002" y="6.75" font-size=".6">Gabriel</text>
	<text x="47.600002" y="7.75" font-size=".6">Camille</text>
	<text x="47.600002" y="8.75" font-size=".6">Lea</text>
	<text x="47.600002" y="9.75" font-size=".6">Hugo</text>
	<text x="47.600002" y="10.75" font-size=".6">Sarah</text>
	<text x="47.600002" y="11.75" font-size=".6">Enzo</text>
	<text x="47.600002" y="12.75" font-size=".6">Chloe</text>
	<text x="47.600002" y="13.75" font-size=".6">Emma</text>
	<circle cx="40.100002" cy="4.25" r="0.5" fill-opacity="0.0" style="stroke:rgb(0,0,0);stroke-width:0.1"/>	<circle cx="40.100002" cy="13.25" r="0.5" fill-opacity="0.0" style="stroke:rgb(0,0,0);stroke-width:0.1"/>	<rect x="57.300003" y="3.25" width="6.0" height="11.0" fill="none" style="stroke:rgb(0,0,0);stroke-width:0.2"/>
	<rect x="55.300003" y="0.25" width="13.0" height="14.0" fill="none" style="stroke:rgb(0,0,0);stroke-width:0.2"/>
	<rect x="61.63231" y="11.582308" width="0.13538462" height="0.13538462"/>
	<rect x="59.63231" y="3.5823078" width="0.13538462" height="0.13538462"/>
	<rect x="60.63231" y="3.5823078" width="0.13538462" height="0.13538462"/>
	<rect x="58.660004" y="13.61" width="0.080000006" height="0.080000006"/>
	<rect x="61.576927" y="13.526923" width="0.24615386" height="0.24615386"/>
	<rect x="62.660004" y="13.61" width="0.080000006" height="0.080000006"/>
	<rect x="60.63231" y="11.582308" width="0.13538462" height="0.13538462"/>
	<rect x="60.604618" y="13.554615" width="0.19076924" height="0.19076924"/>
	<rect x="59.63231" y="8.582308" width="0.13538462" height="0.13538462"/>
	<rect x="59.660004" y="13.61" width="0.080000006" height="0.080000006"/>
	<text x="63.800003" y="2.25" font-size=".9">Emma</text>
	<text x="57.800003" y="2.75" transform="rotate(-90 57.800003,2.75)" font-size=".6">2005</text>
	<text x="58.800003" y="2.75" transform="rotate(-90 58.800003,2.75)" font-size=".6">2006</text>
	<text x="59.800003" y="2.75" transform="rotate(-90 59.800003,2.75)" font-size=".6">2007</text>
	<text x="60.800003" y="2.75" transform="rotate(-90 60.800003,2.75)" font-size=".6">2008</text>
	<text x="61.800003" y="2.75" transform="rotate(-90 61.800003,2.75)" font-size=".6">2009</text>
	<text x="62.800003" y="2.75" transform="rotate(-90 62.800003,2.75)" font-size=".6">2010</text>
	<text x="63.800003" y="3.75" font-size=".6">Lucas</text>
	<text x="63.800003" y="4.75" font-size=".6">Louise</text>
	<text x="63.800003" y="5.75" font-size=".6">Nathan</text>
	<text x="63.800003" y="6.75" font-size=".6">Gabriel</text>
	<text x="63.800003" y="7.75" font-size=".6">Camille</text>
	<text x="63.800003" y="8.75" font-size=".6">Lea</text>
	<text x="63.800003" y="9.75" font-size=".6">Hugo</text>
	<text x="63.800003" y="10.75" font-size=".6">Sarah</text>
	<text x="63.800003" y="11.75" font-size=".6">Enzo</text>
	<text x="63.800003" y="12.75" font-size=".6">Chloe</text>
	<text x="63.800003" y="13.75" font-size=".6">Emma</text>
	<circle cx="56.300003" cy="4.25" r="0.5" fill-opacity="0.0" style="stroke:rgb(0,0,0);stroke-width:0.1"/>	<circle cx="56.300003" cy="13.25" r="0.5" fill-opacity="0.0" style="stroke:rgb(0,0,0);stroke-width:0.1"/></svg>