<svg xmlns="http://www.w3.org/2000/svg" version="1.1">
	<rect x="-20.0" y="-15.75" width="16.0" height="9.0" fill="none" style="stroke:rgb(0,0,0);stroke-width:0.2"/>
	<rect x="-22.0" y="-18.75" width="23.0" height="12.0" fill="none" style="stroke:rgb(0,0,0);stroke-width:0.2"/>
	<rect x="-17.776918" y="-9.526918" width="0.35383606" height="0.35383606"/>
	<rect x="-17.778688" y="-14.528688" width="0.35737705" height="0.35737705"/>
	<rect x="-16.776327" y="-10.526328" width="0.35265574" height="0.35265574"/>
	<rect x="-13.779279" y="-14.529279" width="0.35855737" height="0.35855737"/>
	<rect x="-15.7397375" y="-10.4897375" width="0.27947542" height="0.27947542"/>
	<rect x="-17.757442" y="-11.507442" width="0.31488523" height="0.31488523"/>
	<rect x="-8.706689" y="-13.456689" width="0.21337704" height="0.21337704"/>
	<rect x="-14.710819" y="-13.460819" width="0.22163935" height="0.22163935"/>
	<rect x="-4.826492" y="-8.576491" width="0.45298362" height="0.45298362"/>
	<rect x="-12.733836" y="-11.483836" width="0.26767215" height="0.26767215"/>
	<rect x="-15.852459" y="-9.602459" width="0.50491804" height="0.50491804"/>
	<rect x="-16.74918" y="-7.4991803" width="0.29836068" height="0.29836068"/>
	<rect x="-7.7361965" y="-11.4861965" width="0.27239344" height="0.27239344"/>
	<rect x="-12.756852" y="-14.506852" width="0.31370494" height="0.31370494"/>
	<rect x="-13.703737" y="-13.453737" width="0.20747541" height="0.20747541"/>
	<rect x="-9.760393" y="-10.510393" width="0.3207869" height="0.3207869"/>
	<rect x="-16.784" y="-9.534" width="0.368" height="0.368"/>
	<rect x="-10.74741" y="-7.49741" width="0.29481968" height="0.29481968"/>
	<rect x="-5.7019672" y="-13.451967" width="0.20393443" height="0.20393443"/>
	<rect x="-6.734426" y="-9.4844265" width="0.26885244" height="0.26885244"/>
	<rect x="-6.8554096" y="-8.60541" width="0.5108197" height="0.5108197"/>
	<rect x="-11.758033" y="-9.508033" width="0.31606558" height="0.31606558"/>
	<rect x="-18.829443" y="-8.579443" width="0.45888525" height="0.45888525"/>
	<rect x="-17.778688" y="-10.528688" width="0.35737705" height="0.35737705"/>
	<rect x="-5.726754" y="-14.476754" width="0.25350818" height="0.25350818"/>
	<rect x="-8.735606" y="-10.485606" width="0.27121314" height="0.27121314"/>
	<rect x="-8.719672" y="-12.469672" width="0.23934427" height="0.23934427"/>
	<rect x="-12.7468195" y="-9.4968195" width="0.29363936" height="0.29363936"/>
	<rect x="-10.828262" y="-8.578262" width="0.4565246" height="0.4565246"/>
	<rect x="-9.74564" y="-11.49564" width="0.2912787" height="0.2912787"/>
	<rect x="-14.85659" y="-9.60659" width="0.5131804" height="0.5131804"/>
	<rect x="-6.730885" y="-14.4808855" width="0.2617705" height="0.2617705"/>
	<rect x="-9.7397375" y="-7.4897375" width="0.27947542" height="0.27947542"/>
	<rect x="-13.751541" y="-11.501541" width="0.30308196" height="0.30308196"/>
	<rect x="-7.8424263" y="-8.592426" width="0.48485246" height="0.48485246"/>
	<rect x="-15.7238035" y="-12.4738035" width="0.24760656" height="0.24760656"/>
	<rect x="-17.802885" y="-7.552885" width="0.4057705" height="0.4057705"/>
	<rect x="-11.756262" y="-14.506262" width="0.3125246" height="0.3125246"/>
	<rect x="-8.754492" y="-7.504492" width="0.30898362" height="0.30898362"/>
	<rect x="-4.7238035" y="-14.4738035" width="0.24760656" height="0.24760656"/>
	<rect x="-6.704328" y="-13.454328" width="0.20865574" height="0.20865574"/>
	<rect x="-13.760393" y="-7.5103936" width="0.3207869" height="0.3207869"/>
	<rect x="-9.709049" y="-13.459049" width="0.21809836" height="0.21809836"/>
	<rect x="-12.793443" y="-8.543443" width="0.38688526" height="0.38688526"/>
	<rect x="-5.754492" y="-10.504492" width="0.30898362" height="0.30898362"/>
	<rect x="-19.756853" y="-11.506852" width="0.31370494" height="0.31370494"/>
	<rect x="-11.752131" y="-7.502131" width="0.3042623" height="0.3042623"/>
	<rect x="-18.726753" y="-13.476754" width="0.25350818" height="0.25350818"/>
	<rect x="-4.7361965" y="-11.4861965" width="0.27239344" height="0.27239344"/>
	<rect x="-13.743869" y="-10.493869" width="0.2877377" height="0.2877377"/>
	<rect x="-12.765705" y="-7.515705" width="0.33140984" height="0.33140984"/>
	<rect x="-7.71259" y="-9.46259" width="0.22518031" height="0.22518031"/>
	<rect x="-12.729705" y="-12.479705" width="0.25940984" height="0.25940984"/>
	<rect x="-15.827082" y="-8.577082" width="0.45416394" height="0.45416394"/>
	<rect x="-11.74741" y="-10.49741" width="0.29481968" height="0.29481968"/>
	<rect x="-5.7314754" y="-11.481476" width="0.26295084" height="0.26295084"/>
	<rect x="-16.716131" y="-13.466131" width="0.2322623" height="0.2322623"/>
	<rect x="-18.78282" y="-14.53282" width="0.36563936" height="0.36563936"/>
	<rect x="-19.807016" y="-8.557016" width="0.4140328" height="0.4140328"/>
	<rect x="-11.74977" y="-11.49977" width="0.29954097" height="0.29954097"/>
	<rect x="-13.728524" y="-12.478524" width="0.25704917" height="0.25704917"/>
	<rect x="-10.710819" y="-13.460819" width="0.22163935" height="0.22163935"/>
	<rect x="-14.722033" y="-12.472033" width="0.24406557" height="0.24406557"/>
	<rect x="-14.755082" y="-7.505082" width="0.31016394" height="0.31016394"/>
	<rect x="-9.720853" y="-12.470853" width="0.24170493" height="0.24170493"/>
	<rect x="-8.860722" y="-8.610722" width="0.5214426" height="0.5214426"/>
	<rect x="-15.755672" y="-14.505672" width="0.31134427" height="0.31134427"/>
	<rect x="-19.715542" y="-13.465541" width="0.23108196" height="0.23108196"/>
	<rect x="-16.849508" y="-8.599508" width="0.49901637" height="0.49901637"/>
	<rect x="-10.759213" y="-10.509213" width="0.31842622" height="0.31842622"/>
	<rect x="-7.750951" y="-10.500951" width="0.30190167" height="0.30190167"/>
	<rect x="-13.756262" y="-9.506262" width="0.3125246" height="0.3125246"/>
	<rect x="-19.790491" y="-10.540492" width="0.38098362" height="0.38098362"/>
	<rect x="-17.726753" y="-12.476754" width="0.25350818" height="0.25350818"/>
	<rect x="-7.7320657" y="-14.482065" width="0.26413116" height="0.26413116"/>
	<rect x="-18.777508" y="-9.527508" width="0.3550164" height="0.3550164"/>
	<rect x="-5.78341" y="-7.53341" width="0.36681968" height="0.36681968"/>
	<rect x="-10.7468195" y="-11.4968195" width="0.29363936" height="0.29363936"/>
	<rect x="-6.716131" y="-12.466131" width="0.2322623" height="0.2322623"/>
	<rect x="-16.729706" y="-12.479705" width="0.25940984" height="0.25940984"/>
	<rect x="-13.843607" y="-8.593607" width="0.48721313" height="0.48721313"/>
	<rect x="-8.710819" y="-9.460819" width="0.22163935" height="0.22163935"/>
	<rect x="-15.755082" y="-11.505082" width="0.31016394" height="0.31016394"/>
	<rect x="-14.758033" y="-11.508033" width="0.31606558" height="0.31606558"/>
	<rect x="-10.757442" y="-14.507442" width="0.31488523" height="0.31488523"/>
	<rect x="-9.769836" y="-9.519836" width="0.33967215" height="0.33967215"/>
	<rect x="-18.759804" y="-11.509803" width="0.31960657" height="0.31960657"/>
	<rect x="-10.766885" y="-9.516885" width="0.33377048" height="0.33377048"/>
	<rect x="-16.759212" y="-11.509213" width="0.31842622" height="0.31842622"/>
	<rect x="-15.714951" y="-13.464951" width="0.22990166" height="0.22990166"/>
	<rect x="-5.801705" y="-8.551705" width="0.4034098" height="0.4034098"/>
	<rect x="-18.722033" y="-12.472033" width="0.24406557" height="0.24406557"/>
	<rect x="-6.7863607" y="-7.5363607" width="0.3727213" height="0.3727213"/>
	<rect x="-14.764524" y="-14.514524" width="0.3290492" height="0.3290492"/>
	<rect x="-15.777508" y="-7.5275083" width="0.3550164" height="0.3550164"/>
	<rect x="-7.719672" y="-12.469672" width="0.23934427" height="0.23934427"/>
	<rect x="-5.7456393" y="-9.49564" width="0.2912787" height="0.2912787"/>
	<rect x="-11.707869" y="-13.457869" width="0.2157377" height="0.2157377"/>
	<rect x="-19.785181" y="-14.53518" width="0.37036067" height="0.37036067"/>
	<rect x="-8.7308855" y="-14.4808855" width="0.2617705" height="0.2617705"/>
	<rect x="-19.726753" y="-12.476754" width="0.25350818" height="0.25350818"/>
	<rect x="-8.736787" y="-11.486787" width="0.2735738" height="0.2735738"/>
	<rect x="-19.761574" y="-7.511574" width="0.32314754" height="0.32314754"/>
	<rect x="-18.85482" y="-7.60482" width="0.5096394" height="0.5096394"/>
	<rect x="-17.719671" y="-13.469672" width="0.23934427" height="0.23934427"/>
	<rect x="-12.733246" y="-10.483246" width="0.2664918" height="0.2664918"/>
	<rect x="-11.81941" y="-8.56941" width="0.4388197" height="0.4388197"/>
	<rect x="-10.726164" y="-12.476164" width="0.2523279" height="0.2523279"/>
	<rect x="-9.832394" y="-8.582394" width="0.46478686" height="0.46478686"/>
	<rect x="-16.78164" y="-14.531639" width="0.36327872" height="0.36327872"/>
	<rect x="-12.706689" y="-13.456689" width="0.21337704" height="0.21337704"/>
	<rect x="-7.7072787" y="-13.457278" width="0.2145574" height="0.2145574"/>
	<rect x="-11.731476" y="-12.481476" width="0.26295084" height="0.26295084"/>
	<rect x="-7.7704263" y="-7.5204263" width="0.34085247" height="0.34085247"/>
	<rect x="-6.7356067" y="-11.485606" width="0.27121314" height="0.27121314"/>
	<rect x="-4.7060986" y="-13.456099" width="0.21219674" height="0.21219674"/>
	<rect x="-4.7633443" y="-9.513344" width="0.32668853" height="0.32668853"/>
	<rect x="-18.790491" y="-10.540492" width="0.38098362" height="0.38098362"/>
	<rect x="-14.833573" y="-8.583573" width="0.46714756" height="0.46714756"/>
	<rect x="-17.858952" y="-8.608951" width="0.51790166" height="0.51790166"/>
	<rect x="-6.74859" y="-10.49859" width="0.29718032" height="0.29718032"/>
	<rect x="-14.764524" y="-10.514524" width="0.3290492" height="0.3290492"/>
	<rect x="-9.7468195" y="-14.4968195" width="0.29363936" height="0.29363936"/>
	<text x="-3.5" y="-16.75" font-size=".9">India</text>
	<text x="-19.5" y="-16.25" transform="rotate(-90 -19.5,-16.25)" font-size=".6">1995-01-01</text>
	<text x="-18.5" y="-16.25" transform="rotate(-90 -18.5,-16.25)" font-size=".6">1996-01-01</text>
	<text x="-17.5" y="-16.25" transform="rotate(-90 -17.5,-16.25)" font-size=".6">1997-01-01</text>
	<text x="-16.5" y="-16.25" transform="rotate(-90 -16.5,-16.25)" font-size=".6">1998-01-01</text>
	<text x="-15.5" y="-16.25" transform="rotate(-90 -15.5,-16.25)" font-size=".6">1999-01-01</text>
	<text x="-14.5" y="-16.25" transform="rotate(-90 -14.5,-16.25)" font-size=".6">2000-01-01</text>
	<text x="-13.5" y="-16.25" transform="rotate(-90 -13.5,-16.25)" font-size=".6">2001-01-01</text>
	<text x="-12.5" y="-16.25" transform="rotate(-90 -12.5,-16.25)" font-size=".6">2002-01-01</text>
	<text x="-11.5" y="-16.25" transform="rotate(-90 -11.5,-16.25)" font-size=".6">2003-01-01</text>
	<text x="-10.5" y="-16.25" transform="rotate(-90 -10.5,-16.25)" font-size=".6">2004-01-01</text>
	<text x="-9.5" y="-16.25" transform="rotate(-90 -9.5,-16.25)" font-size=".6">2005-01-01</text>
	<text x="-8.5" y="-16.25" transform="rotate(-90 -8.5,-16.25)" font-size=".6">2006-01-01</text>
	<text x="-7.5" y="-16.25" transform="rotate(-90 -7.5,-16.25)" font-size=".6">2007-01-01</text>
	<text x="-6.5" y="-16.25" transform="rotate(-90 -6.5,-16.25)" font-size=".6">2008-01-01</text>
	<text x="-5.5" y="-16.25" transform="rotate(-90 -5.5,-16.25)" font-size=".6">2009-01-01</text>
	<text x="-4.5" y="-16.25" transform="rotate(-90 -4.5,-16.25)" font-size=".6">2010-01-01</text>
	<text x="-3.5" y="-15.25" font-size=".6">India</text>
	<text x="-3.5" y="-14.25" font-size=".6">China</text>
	<text x="-3.5" y="-13.25" font-size=".6">United States</text>
	<text x="-3.5" y="-12.25" font-size=".6">Netherlands</text>
	<text x="-3.5" y="-11.25" font-size=".6">Germany</text>
	<text x="-3.5" y="-10.25" font-size=".6">France</text>
	<text x="-3.5" y="-9.25" font-size=".6">Russian Federation</text>
	<text x="-3.5" y="-8.25" font-size=".6">Malawi</text>
	<text x="-3.5" y="-7.25" font-size=".6">Sudan</text>
	<circle cx="-21.0" cy="-14.75" r="0.5" fill-opacity="0.0" style="stroke:rgb(0,0,0);stroke-width:0.1"/>	<circle cx="-21.0" cy="-7.75" r="0.5" fill-opacity="0.0" style="stroke:rgb(0,0,0);stroke-width:0.1"/>	<rect x="6.200001" y="-15.75" width="16.0" height="9.0" fill="none" style="stroke:rgb(0,0,0);stroke-width:0.2"/>
	<rect x="4.200001" y="-18.75" width="23.0" height="12.0" fill="none" style="stroke:rgb(0,0,0);stroke-width:0.2"/>
	<rect x="19.469116" y="-15.4808855" width="0.2617705" height="0.2617705"/>
	<rect x="17.474426" y="-11.475574" width="0.25114754" height="0.25114754"/>
	<rect x="9.338689" y="-7.6113114" width="0.522623" height="0.522623"/>
	<rect x="19.472067" y="-11.477935" width="0.25586888" height="0.25586888"/>
	<rect x="9.418362" y="-15.531639" width="0.36327872" height="0.36327872"/>
	<rect x="15.5015745" y="-9.448426" width="0.19685246" height="0.19685246"/>
	<rect x="18.475607" y="-11.474394" width="0.24878688" height="0.24878688"/>
	<rect x="7.4756074" y="-9.474394" width="0.24878688" height="0.24878688"/>
	<rect x="6.4148207" y="-15.53518" width="0.37036067" height="0.37036067"/>
	<rect x="18.45259" y="-10.49741" width="0.29481968" height="0.29481968"/>
	<rect x="13.469706" y="-11.480295" width="0.26059017" height="0.26059017"/>
	<rect x="7.493902" y="-13.456099" width="0.21219674" height="0.21219674"/>
	<rect x="13.443149" y="-15.506852" width="0.31370494" height="0.31370494"/>
	<rect x="19.327477" y="-8.622524" width="0.5450492" height="0.5450492"/>
	<rect x="18.263739" y="-8.686262" width="0.67252463" height="0.67252463"/>
	<rect x="9.488591" y="-9.46141" width="0.22281967" height="0.22281967"/>
	<rect x="7.451411" y="-11.49859" width="0.29718032" height="0.29718032"/>
	<rect x="18.508066" y="-13.441935" width="0.18386886" height="0.18386886"/>
	<rect x="8.481509" y="-9.468492" width="0.23698361" height="0.23698361"/>
	<rect x="15.428394" y="-7.5216064" width="0.3432131" height="0.3432131"/>
	<rect x="15.455542" y="-10.494459" width="0.28891805" height="0.28891805"/>
	<rect x="15.480919" y="-12.469082" width="0.23816393" height="0.23816393"/>
	<rect x="12.479148" y="-12.470853" width="0.24170493" height="0.24170493"/>
	<rect x="13.5015745" y="-9.448426" width="0.19685246" height="0.19685246"/>
	<rect x="16.505705" y="-9.444295" width="0.18859017" height="0.18859017"/>
	<rect x="21.317444" y="-8.632557" width="0.56511474" height="0.56511474"/>
	<rect x="11.275541" y="-7.674459" width="0.6489181" height="0.6489181"/>
	<rect x="13.349902" y="-7.6000986" width="0.50019675" height="0.50019675"/>
	<rect x="17.48564" y="-12.46436" width="0.2287213" height="0.2287213"/>
	<rect x="16.469706" y="-11.480295" width="0.26059017" height="0.26059017"/>
	<rect x="15.275541" y="-8.674459" width="0.6489181" height="0.6489181"/>
	<rect x="18.48682" y="-12.463181" width="0.22636066" height="0.22636066"/>
	<rect x="12.476197" y="-11.4738035" width="0.24760656" height="0.24760656"/>
	<rect x="12.310362" y="-7.6396394" width="0.5792787" height="0.5792787"/>
	<rect x="11.435476" y="-15.514524" width="0.3290492" height="0.3290492"/>
	<rect x="14.313313" y="-8.636688" width="0.5733771" height="0.5733771"/>
	<rect x="10.462624" y="-10.487377" width="0.2747541" height="0.2747541"/>
	<rect x="17.431345" y="-7.518656" width="0.33731148" height="0.33731148"/>
	<rect x="21.51751" y="-13.432492" width="0.16498362" height="0.16498362"/>
	<rect x="11.475607" y="-11.474394" width="0.24878688" height="0.24878688"/>
	<rect x="16.45318" y="-15.4968195" width="0.29363936" height="0.29363936"/>
	<rect x="7.4803286" y="-12.469672" width="0.23934427" height="0.23934427"/>
	<rect x="16.237772" y="-8.71223" width="0.72445905" height="0.72445905"/>
	<rect x="16.441378" y="-7.508623" width="0.31724593" height="0.31724593"/>
	<rect x="6.471476" y="-11.478524" width="0.25704917" height="0.25704917"/>
	<rect x="10.483279" y="-13.466722" width="0.23344262" height="0.23344262"/>
	<rect x="9.471477" y="-11.478524" width="0.25704917" height="0.25704917"/>
	<rect x="10.4927225" y="-9.457278" width="0.2145574" height="0.2145574"/>
	<rect x="20.421902" y="-7.5280986" width="0.35619673" height="0.35619673"/>
	<rect x="18.508066" y="-9.441935" width="0.18386886" height="0.18386886"/>
	<rect x="8.396525" y="-7.5534754" width="0.4069508" height="0.4069508"/>
	<rect x="12.420722" y="-15.529279" width="0.35855737" height="0.35855737"/>
	<rect x="21.476198" y="-15.4738035" width="0.24760656" height="0.24760656"/>
	<rect x="15.442558" y="-15.507442" width="0.31488523" height="0.31488523"/>
	<rect x="12.495673" y="-9.454328" width="0.20865574" height="0.20865574"/>
	<rect x="8.421312" y="-15.528688" width="0.35737705" height="0.35737705"/>
	<rect x="15.505706" y="-13.444295" width="0.18859017" height="0.18859017"/>
	<rect x="11.493312" y="-9.456689" width="0.21337704" height="0.21337704"/>
	<rect x="7.417181" y="-15.53282" width="0.36563936" height="0.36563936"/>
	<rect x="20.463213" y="-10.486787" width="0.2735738" height="0.2735738"/>
	<rect x="19.401247" y="-7.548754" width="0.3975082" height="0.3975082"/>
	<rect x="7.410099" y="-7.5399017" width="0.37980327" height="0.37980327"/>
	<rect x="19.48564" y="-12.46436" width="0.2287213" height="0.2287213"/>
	<rect x="20.51574" y="-13.434262" width="0.1685246" height="0.1685246"/>
	<rect x="8.4891815" y="-13.460819" width="0.22163935" height="0.22163935"/>
	<rect x="13.4927225" y="-13.457278" width="0.2145574" height="0.2145574"/>
	<rect x="19.452002" y="-10.498" width="0.296" height="0.296"/>
	<rect x="16.459084" y="-10.490918" width="0.28183606" height="0.28183606"/>
	<rect x="7.439607" y="-10.510393" width="0.3207869" height="0.3207869"/>
	<rect x="12.490952" y="-13.459049" width="0.21809836" height="0.21809836"/>
	<rect x="11.491542" y="-13.458459" width="0.21691804" height="0.21691804"/>
	<rect x="17.469116" y="-15.4808855" width="0.2617705" height="0.2617705"/>
	<rect x="16.484459" y="-12.465541" width="0.23108196" height="0.23108196"/>
	<rect x="18.416" y="-7.534" width="0.368" height="0.368"/>
	<rect x="8.443739" y="-10.506262" width="0.3125246" height="0.3125246"/>
	<rect x="6.4968534" y="-13.453148" width="0.20629509" height="0.20629509"/>
	<rect x="13.201771" y="-8.74823" width="0.796459" height="0.796459"/>
	<rect x="14.505706" y="-13.444295" width="0.18859017" height="0.18859017"/>
	<rect x="11.475018" y="-12.474983" width="0.24996722" height="0.24996722"/>
	<rect x="9.48387" y="-13.466131" width="0.2322623" height="0.2322623"/>
	<rect x="14.467345" y="-11.482656" width="0.26531148" height="0.26531148"/>
	<rect x="17.509247" y="-13.440754" width="0.1815082" height="0.1815082"/>
	<rect x="9.456722" y="-12.4932785" width="0.2865574" height="0.2865574"/>
	<rect x="21.502165" y="-9.447836" width="0.19567214" height="0.19567214"/>
	<rect x="9.462624" y="-10.487377" width="0.2747541" height="0.2747541"/>
	<rect x="17.505116" y="-9.444885" width="0.1897705" height="0.1897705"/>
	<rect x="14.454951" y="-10.495049" width="0.29009837" height="0.29009837"/>
	<rect x="19.503935" y="-9.446066" width="0.19213115" height="0.19213115"/>
	<rect x="21.477968" y="-11.472033" width="0.24406557" height="0.24406557"/>
	<rect x="10.466165" y="-12.483836" width="0.26767215" height="0.26767215"/>
	<rect x="8.454951" y="-12.495049" width="0.29009837" height="0.29009837"/>
	<rect x="8.443149" y="-11.506852" width="0.31370494" height="0.31370494"/>
	<rect x="11.459673" y="-10.490328" width="0.28065574" height="0.28065574"/>
	<rect x="15.463804" y="-11.4861965" width="0.27239344" height="0.27239344"/>
	<rect x="18.467936" y="-15.482065" width="0.26413116" height="0.26413116"/>
	<rect x="20.501575" y="-9.448426" width="0.19685246" height="0.19685246"/>
	<rect x="20.391214" y="-8.558787" width="0.41757378" height="0.41757378"/>
	<rect x="10.444328" y="-15.505672" width="0.31134427" height="0.31134427"/>
	<rect x="6.471476" y="-10.478524" width="0.25704917" height="0.25704917"/>
	<rect x="14.482689" y="-12.467312" width="0.23462296" height="0.23462296"/>
	<rect x="14.5033455" y="-9.446655" width="0.19331148" height="0.19331148"/>
	<rect x="10.278493" y="-7.6715083" width="0.6430164" height="0.6430164"/>
	<rect x="13.479148" y="-12.470853" width="0.24170493" height="0.24170493"/>
	<rect x="16.505705" y="-13.444295" width="0.18859017" height="0.18859017"/>
	<rect x="6.402427" y="-7.5475736" width="0.39514753" height="0.39514753"/>
	<rect x="10.477968" y="-11.472033" width="0.24406557" height="0.24406557"/>
	<rect x="6.4590826" y="-12.490918" width="0.28183606" height="0.28183606"/>
	<rect x="13.447869" y="-10.502131" width="0.3042623" height="0.3042623"/>
	<rect x="20.476198" y="-11.4738035" width="0.24760656" height="0.24760656"/>
	<rect x="20.473248" y="-15.476754" width="0.25350818" height="0.25350818"/>
	<rect x="19.510427" y="-13.439573" width="0.17914754" height="0.17914754"/>
	<rect x="17.446098" y="-10.5039015" width="0.30780327" height="0.30780327"/>
	<rect x="14.443739" y="-15.506262" width="0.3125246" height="0.3125246"/>
	<rect x="12.453772" y="-10.496229" width="0.292459" height="0.292459"/>
	<rect x="17.2" y="-8.75" width="0.8" height="0.8"/>
	<rect x="14.414821" y="-7.53518" width="0.37036067" height="0.37036067"/>
	<text x="22.7" y="-16.75" font-size=".9">China</text>
	<text x="6.700001" y="-16.25" transform="rotate(-90 6.700001,-16.25)" font-size=".6">1995-01-01</text>
	<text x="7.700001" y="-16.25" transform="rotate(-90 7.700001,-16.25)" font-size=".6">1996-01-01</text>
	<text x="8.700001" y="-16.25" transform="rotate(-90 8.700001,-16.25)" font-size=".6">1997-01-01</text>
	<text x="9.700001" y="-16.25" transform="rotate(-90 9.700001,-16.25)" font-size=".6">1998-01-01</text>
	<text x="10.700001" y="-16.25" transform="rotate(-90 10.700001,-16.25)" font-size=".6">1999-01-01</text>
	<text x="11.700001" y="-16.25" transform="rotate(-90 11.700001,-16.25)" font-size=".6">2000-01-01</text>
	<text x="12.700001" y="-16.25" transform="rotate(-90 12.700001,-16.25)" font-size=".6">2001-01-01</text>
	<text x="13.700001" y="-16.25" transform="rotate(-90 13.700001,-16.25)" font-size=".6">2002-01-01</text>
	<text x="14.700001" y="-16.25" transform="rotate(-90 14.700001,-16.25)" font-size=".6">2003-01-01</text>
	<text x="15.700001" y="-16.25" transform="rotate(-90 15.700001,-16.25)" font-size=".6">2004-01-01</text>
	<text x="16.7" y="-16.25" transform="rotate(-90 16.7,-16.25)" font-size=".6">2005-01-01</text>
	<text x="17.7" y="-16.25" transform="rotate(-90 17.7,-16.25)" font-size=".6">2006-01-01</text>
	<text x="18.7" y="-16.25" transform="rotate(-90 18.7,-16.25)" font-size=".6">2007-01-01</text>
	<text x="19.7" y="-16.25" transform="rotate(-90 19.7,-16.25)" font-size=".6">2008-01-01</text>
	<text x="20.7" y="-16.25" transform="rotate(-90 20.7,-16.25)" font-size=".6">2009-01-01</text>
	<text x="21.7" y="-16.25" transform="rotate(-90 21.7,-16.25)" font-size=".6">2010-01-01</text>
	<text x="22.7" y="-15.25" font-size=".6">India</text>
	<text x="22.7" y="-14.25" font-size=".6">China</text>
	<text x="22.7" y="-13.25" font-size=".6">United States</text>
	<text x="22.7" y="-12.25" font-size=".6">Netherlands</text>
	<text x="22.7" y="-11.25" font-size=".6">Germany</text>
	<text x="22.7" y="-10.25" font-size=".6">France</text>
	<text x="22.7" y="-9.25" font-size=".6">Russian Federation</text>
	<text x="22.7" y="-8.25" font-size=".6">Malawi</text>
	<text x="22.7" y="-7.25" font-size=".6">Sudan</text>
	<circle cx="5.200001" cy="-14.75" r="0.5" fill-opacity="0.0" style="stroke:rgb(0,0,0);stroke-width:0.1"/>	<circle cx="5.200001" cy="-7.75" r="0.5" fill-opacity="0.0" style="stroke:rgb(0,0,0);stroke-width:0.1"/>	<rect x="32.4" y="-15.75" width="16.0" height="9.0" fill="none" style="stroke:rgb(0,0,0);stroke-width:0.2"/>
	<rect x="30.400002" y="-18.75" width="23.0" height="12.0" fill="none" style="stroke:rgb(0,0,0);stroke-width:0.2"/>
	<rect x="34.72636" y="-12.423639" width="0.1472787" height="0.1472787"/>
	<rect x="37.65377" y="-9.496229" width="0.292459" height="0.292459"/>
	<rect x="37.702164" y="-11.447836" width="0.19567214" height="0.19567214"/>
	<rect x="39.693314" y="-15.456689" width="0.21337704" height="0.21337704"/>
	<rect x="41.72341" y="-12.42659" width="0.15318033" height="0.15318033"/>
	<rect x="41.689182" y="-15.460819" width="0.22163935" height="0.22163935"/>
	<rect x="34.631348" y="-7.518656" width="0.33731148" height="0.33731148"/>
	<rect x="42.65023" y="-9.49977" width="0.29954097" height="0.29954097"/>
	<rect x="40.69213" y="-15.457869" width="0.2157377" height="0.2157377"/>
	<rect x="47.676197" y="-8.4738035" width="0.24760656" height="0.24760656"/>
	<rect x="35.64138" y="-8.508623" width="0.31724593" height="0.31724593"/>
	<rect x="43.693314" y="-15.456689" width="0.21337704" height="0.21337704"/>
	<rect x="42.725773" y="-12.42423" width="0.14845902" height="0.14845902"/>
	<rect x="36.68328" y="-14.466722" width="0.23344262" height="0.23344262"/>
	<rect x="38.687412" y="-10.46259" width="0.22518031" height="0.22518031"/>
	<rect x="34.702164" y="-11.447836" width="0.19567214" height="0.19567214"/>
	<rect x="44.68328" y="-10.466722" width="0.23344262" height="0.23344262"/>
	<rect x="45.640198" y="-7.5098033" width="0.31960657" height="0.31960657"/>
	<rect x="32.663803" y="-7.4861965" width="0.27239344" height="0.27239344"/>
	<rect x="44.728134" y="-12.421869" width="0.14373772" height="0.14373772"/>
	<rect x="37.689182" y="-15.460819" width="0.22163935" height="0.22163935"/>
	<rect x="40.623085" y="-7.526918" width="0.35383606" height="0.35383606"/>
	<rect x="43.709248" y="-14.440754" width="0.1815082" height="0.1815082"/>
	<rect x="33.640198" y="-7.5098033" width="0.31960657" height="0.31960657"/>
	<rect x="41.64905" y="-8.500951" width="0.30190167" height="0.30190167"/>
	<rect x="34.689182" y="-14.460819" width="0.22163935" height="0.22163935"/>
	<rect x="45.68328" y="-10.466722" width="0.23344262" height="0.23344262"/>
	<rect x="40.633118" y="-8.516885" width="0.33377048" height="0.33377048"/>
	<rect x="32.68446" y="-15.465541" width="0.23108196" height="0.23108196"/>
	<rect x="34.68033" y="-15.469672" width="0.23934427" height="0.23934427"/>
	<rect x="35.639606" y="-9.510393" width="0.3207869" height="0.3207869"/>
	<rect x="37.68623" y="-10.463771" width="0.227541" height="0.227541"/>
	<rect x="38.690952" y="-14.459049" width="0.21809836" height="0.21809836"/>
	<rect x="42.705708" y="-14.444295" width="0.18859017" height="0.18859017"/>
	<rect x="47.64787" y="-9.502131" width="0.3042623" height="0.3042623"/>
	<rect x="44.706295" y="-11.443705" width="0.18740985" height="0.18740985"/>
	<rect x="35.683872" y="-15.466131" width="0.2322623" height="0.2322623"/>
	<rect x="45.676197" y="-8.4738035" width="0.24760656" height="0.24760656"/>
	<rect x="41.703346" y="-11.446655" width="0.19331148" height="0.19331148"/>
	<rect x="33.645508" y="-8.504492" width="0.30898362" height="0.30898362"/>
	<rect x="36.629574" y="-7.5204263" width="0.34085247" height="0.34085247"/>
	<rect x="36.65082" y="-9.49918" width="0.29836068" height="0.29836068"/>
	<rect x="35.683872" y="-14.466131" width="0.2322623" height="0.2322623"/>
	<rect x="33.693905" y="-14.456099" width="0.21219674" height="0.21219674"/>
	<rect x="38.64138" y="-9.508623" width="0.31724593" height="0.31724593"/>
	<rect x="44.64669" y="-9.503311" width="0.30662295" height="0.30662295"/>
	<rect x="37.691544" y="-14.458459" width="0.21691804" height="0.21691804"/>
	<rect x="39.692722" y="-14.457278" width="0.2145574" height="0.2145574"/>
	<rect x="36.68505" y="-15.464951" width="0.22990166" height="0.22990166"/>
	<rect x="37.668526" y="-8.481476" width="0.26295084" height="0.26295084"/>
	<rect x="34.65259" y="-9.49741" width="0.29481968" height="0.29481968"/>
	<rect x="36.63902" y="-8.510983" width="0.3219672" height="0.3219672"/>
	<rect x="32.72695" y="-12.423049" width="0.14609836" height="0.14609836"/>
	<rect x="43.65023" y="-9.49977" width="0.29954097" height="0.29954097"/>
	<rect x="38.651413" y="-8.49859" width="0.29718032" height="0.29718032"/>
	<rect x="39.630756" y="-9.519246" width="0.3384918" height="0.3384918"/>
	<rect x="46.65082" y="-7.4991803" width="0.29836068" height="0.29836068"/>
	<rect x="42.68623" y="-10.463771" width="0.227541" height="0.227541"/>
	<rect x="43.705708" y="-11.444295" width="0.18859017" height="0.18859017"/>
	<rect x="45.727543" y="-12.422459" width="0.14491804" height="0.14491804"/>
	<rect x="46.64846" y="-9.501541" width="0.30308196" height="0.30308196"/>
	<rect x="47.693905" y="-15.456099" width="0.21219674" height="0.21219674"/>
	<rect x="45.64669" y="-9.503311" width="0.30662295" height="0.30662295"/>
	<rect x="34.64315" y="-8.506852" width="0.31370494" height="0.31370494"/>
	<rect x="38.620132" y="-7.529869" width="0.35973772" height="0.35973772"/>
	<rect x="35.705708" y="-11.444295" width="0.18859017" height="0.18859017"/>
	<rect x="46.68446" y="-8.465541" width="0.23108196" height="0.23108196"/>
	<rect x="46.698036" y="-15.451967" width="0.20393443" height="0.20393443"/>
	<rect x="39.727543" y="-12.422459" width="0.14491804" height="0.14491804"/>
	<rect x="41.64787" y="-9.502131" width="0.3042623" height="0.3042623"/>
	<rect x="36.68623" y="-10.463771" width="0.227541" height="0.227541"/>
	<rect x="32.696854" y="-14.453148" width="0.20629509" height="0.20629509"/>
	<rect x="45.708656" y="-11.441344" width="0.18268852" height="0.18268852"/>
	<rect x="45.695675" y="-15.454328" width="0.20865574" height="0.20865574"/>
	<rect x="37.729313" y="-12.420689" width="0.14137705" height="0.14137705"/>
	<rect x="41.621902" y="-7.5280986" width="0.35619673" height="0.35619673"/>
	<rect x="33.67325" y="-15.476754" width="0.25350818" height="0.25350818"/>
	<rect x="32.698624" y="-11.451377" width="0.2027541" height="0.2027541"/>
	<rect x="39.702164" y="-11.447836" width="0.19567214" height="0.19567214"/>
	<rect x="36.728134" y="-12.421869" width="0.14373772" height="0.14373772"/>
	<rect x="42.664986" y="-7.4850163" width="0.2700328" height="0.2700328"/>
	<rect x="35.72636" y="-12.423639" width="0.1472787" height="0.1472787"/>
	<rect x="39.67561" y="-8.474394" width="0.24878688" height="0.24878688"/>
	<rect x="44.692722" y="-15.457278" width="0.2145574" height="0.2145574"/>
	<rect x="40.705708" y="-14.444295" width="0.18859017" height="0.18859017"/>
	<rect x="44.70807" y="-14.441935" width="0.18386886" height="0.18386886"/>
	<rect x="44.64315" y="-7.5068526" width="0.31370494" height="0.31370494"/>
	<rect x="42.690952" y="-15.459049" width="0.21809836" height="0.21809836"/>
	<rect x="33.699806" y="-11.450196" width="0.20039344" height="0.20039344"/>
	<rect x="36.701576" y="-11.448426" width="0.19685246" height="0.19685246"/>
	<rect x="38.727543" y="-12.422459" width="0.14491804" height="0.14491804"/>
	<rect x="41.705708" y="-14.444295" width="0.18859017" height="0.18859017"/>
	<rect x="47.714558" y="-11.435443" width="0.17088525" height="0.17088525"/>
	<rect x="39.689182" y="-10.460819" width="0.22163935" height="0.22163935"/>
	<rect x="43.6461" y="-7.5039015" width="0.30780327" height="0.30780327"/>
	<rect x="45.710426" y="-14.439573" width="0.17914754" height="0.17914754"/>
	<rect x="35.687412" y="-10.46259" width="0.22518031" height="0.22518031"/>
	<rect x="40.68859" y="-10.46141" width="0.22281967" height="0.22281967"/>
	<rect x="34.68505" y="-10.464951" width="0.22990166" height="0.22990166"/>
	<rect x="33.68505" y="-10.464951" width="0.22990166" height="0.22990166"/>
	<rect x="33.725773" y="-12.42423" width="0.14845902" height="0.14845902"/>
	<rect x="46.71574" y="-14.434262" width="0.1685246" height="0.1685246"/>
	<rect x="39.592396" y="-7.5576067" width="0.4152131" height="0.4152131"/>
	<rect x="37.628986" y="-7.5210166" width="0.3420328" height="0.3420328"/>
	<rect x="40.630165" y="-9.519836" width="0.33967215" height="0.33967215"/>
	<rect x="43.685642" y="-10.46436" width="0.2287213" height="0.2287213"/>
	<rect x="32.68328" y="-10.466722" width="0.23344262" height="0.23344262"/>
	<rect x="42.705116" y="-11.444885" width="0.1897705" height="0.1897705"/>
	<rect x="46.689774" y="-10.46023" width="0.22045901" height="0.22045901"/>
	<rect x="32.696854" y="-8.453148" width="0.20629509" height="0.20629509"/>
	<rect x="47.71751" y="-14.432492" width="0.16498362" height="0.16498362"/>
	<rect x="41.68623" y="-10.463771" width="0.227541" height="0.227541"/>
	<rect x="38.700394" y="-11.449607" width="0.19921312" height="0.19921312"/>
	<rect x="38.696262" y="-15.453737" width="0.20747541" height="0.20747541"/>
	<rect x="42.670887" y="-8.479115" width="0.25822952" height="0.25822952"/>
	<rect x="35.630756" y="-7.519246" width="0.3384918" height="0.3384918"/>
	<rect x="40.703938" y="-11.446066" width="0.19213115" height="0.19213115"/>
	<rect x="33.664986" y="-9.485017" width="0.2700328" height="0.2700328"/>
	<rect x="46.71515" y="-11.434853" width="0.16970491" height="0.16970491"/>
	<rect x="43.73049" y="-12.419508" width="0.13901639" height="0.13901639"/>
	<rect x="44.669117" y="-8.4808855" width="0.2617705" height="0.2617705"/>
	<rect x="43.67856" y="-8.471442" width="0.24288526" height="0.24288526"/>
	<rect x="40.725773" y="-12.42423" width="0.14845902" height="0.14845902"/>
	<text x="48.9" y="-16.75" font-size=".9">United States</text>
	<text x="32.9" y="-16.25" transform="rotate(-90 32.9,-16.25)" font-size=".6">1995-01-01</text>
	<text x="33.9" y="-16.25" transform="rotate(-90 33.9,-16.25)" font-size=".6">1996-01-01</text>
	<text x="34.9" y="-16.25" transform="rotate(-90 34.9,-16.25)" font-size=".6">1997-01-01</text>
	<text x="35.9" y="-16.25" transform="rotate(-90 35.9,-16.25)" font-size=".6">1998-01-01</text>
	<text x="36.9" y="-16.25" transform="rotate(-90 36.9,-16.25)" font-size=".6">1999-01-01</text>
	<text x="37.9" y="-16.25" transform="rotate(-90 37.9,-16.25)" font-size=".6">2000-01-01</text>
	<text x="38.9" y="-16.25" transform="rotate(-90 38.9,-16.25)" font-size=".6">2001-01-01</text>
	<text x="39.9" y="-16.25" transform="rotate(-90 39.9,-16.25)" font-size=".6">2002-01-01</text>
	<text x="40.9" y="-16.25" transform="rotate(-90 40.9,-16.25)" font-size=".6">2003-01-01</text>
	<text x="41.9" y="-16.25" transform="rotate(-90 41.9,-16.25)" font-size=".6">2004-01-01</text>
	<text x="42.9" y="-16.25" transform="rotate(-90 42.9,-16.25)" font-size=".6">2005-01-01</text>
	<text x="43.9" y="-16.25" transform="rotate(-90 43.9,-16.25)" font-size=".6">2006-01-01</text>
	<text x="44.9" y="-16.25" transform="rotate(-90 44.9,-16.25)" font-size=".6">2007-01-01</text>
	<text x="45.9" y="-16.25" transform="rotate(-90 45.9,-16.25)" font-size=".6">2008-01-01</text>
	<text x="46.9" y="-16.25" transform="rotate(-90 46.9,-16.25)" font-size=".6">2009-01-01</text>
	<text x="47.9" y="-16.25" transform="rotate(-90 47.9,-16.25)" font-size=".6">2010-01-01</text>
	<text x="48.9" y="-15.25" font-size=".6">India</text>
	<text x="48.9" y="-14.25" font-size=".6">China</text>
	<text x="48.9" y="-13.25" font-size=".6">United States</text>
	<text x="48.9" y="-12.25" font-size=".6">Netherlands</text>
	<text x="48.9" y="-11.25" font-size=".6">Germany</text>
	<text x="48.9" y="-10.25" font-size=".6">France</text>
	<text x="48.9" y="-9.25" font-size=".6">Russian Federation</text>
	<text x="48.9" y="-8.25" font-size=".6">Malawi</text>
	<text x="48.9" y="-7.25" font-size=".6">Sudan</text>
	<circle cx="31.400002" cy="-14.75" r="0.5" fill-opacity="0.0" style="stroke:rgb(0,0,0);stroke-width:0.1"/>	<circle cx="31.400002" cy="-7.75" r="0.5" fill-opacity="0.0" style="stroke:rgb(0,0,0);stroke-width:0.1"/>	<rect x="58.600002" y="-15.75" width="16.0" height="9.0" fill="none" style="stroke:rgb(0,0,0);stroke-width:0.2"/>
	<rect x="56.600002" y="-18.75" width="23.0" height="12.0" fill="none" style="stroke:rgb(0,0,0);stroke-width:0.2"/>
	<rect x="71.89863" y="-9.451377" width="0.2027541" height="0.2027541"/>
	<rect x="59.953514" y="-11.396492" width="0.09298361" height="0.09298361"/>
	<rect x="70.92814" y="-13.421869" width="0.14373772" height="0.14373772"/>
	<rect x="62.92814" y="-13.421869" width="0.14373772" height="0.14373772"/>
	<rect x="68.95942" y="-11.39059" width="0.08118033" height="0.08118033"/>
	<rect x="69.88564" y="-14.46436" width="0.2287213" height="0.2287213"/>
	<rect x="63.89509" y="-8.454918" width="0.20983605" height="0.20983605"/>
	<rect x="64.955284" y="-11.394721" width="0.089442626" height="0.089442626"/>
	<rect x="65.80775" y="-7.542262" width="0.38452458" height="0.38452458"/>
	<rect x="58.820137" y="-7.529869" width="0.35973772" height="0.35973772"/>
	<rect x="66.8284" y="-8.521606" width="0.3432131" height="0.3432131"/>
	<rect x="62.89863" y="-9.451377" width="0.2027541" height="0.2027541"/>
	<rect x="70.84434" y="-7.505672" width="0.31134427" height="0.31134427"/>
	<rect x="70.83725" y="-8.512754" width="0.3255082" height="0.3255082"/>
	<rect x="58.952923" y="-11.397082" width="0.09416394" height="0.09416394"/>
	<rect x="63.875023" y="-14.474983" width="0.24996722" height="0.24996722"/>
	<rect x="65.848465" y="-8.501541" width="0.30308196" height="0.30308196"/>
	<rect x="58.873253" y="-15.476754" width="0.25350818" height="0.25350818"/>
	<rect x="66.818954" y="-7.5310493" width="0.36209837" height="0.36209837"/>
	<rect x="63.87797" y="-15.472033" width="0.24406557" height="0.24406557"/>
	<rect x="69.844925" y="-7.505082" width="0.31016394" height="0.31016394"/>
	<rect x="61.918694" y="-9.431312" width="0.16262296" height="0.16262296"/>
	<rect x="60.873253" y="-15.476754" width="0.25350818" height="0.25350818"/>
	<rect x="68.83076" y="-7.519246" width="0.3384918" height="0.3384918"/>
	<rect x="67.83548" y="-8.514524" width="0.3290492" height="0.3290492"/>
	<rect x="71.88564" y="-14.46436" width="0.2287213" height="0.2287213"/>
	<rect x="60.952923" y="-11.397082" width="0.09416394" height="0.09416394"/>
	<rect x="59.840794" y="-7.509213" width="0.31842622" height="0.31842622"/>
	<rect x="60.942303" y="-10.407705" width="0.11540984" height="0.11540984"/>
	<rect x="65.95647" y="-11.393541" width="0.08708197" height="0.08708197"/>
	<rect x="65.87915" y="-14.470853" width="0.24170493" height="0.24170493"/>
	<rect x="65.94407" y="-10.405934" width="0.11186886" height="0.11186886"/>
	<rect x="60.914562" y="-9.435443" width="0.17088525" height="0.17088525"/>
	<rect x="71.92754" y="-13.422459" width="0.14491804" height="0.14491804"/>
	<rect x="58.811874" y="-8.538131" width="0.37626228" height="0.37626228"/>
	<rect x="61.8703" y="-15.479705" width="0.25940984" height="0.25940984"/>
	<rect x="67.888596" y="-9.46141" width="0.22281967" height="0.22281967"/>
	<rect x="65.90217" y="-9.447836" width="0.19567214" height="0.19567214"/>
	<rect x="60.926365" y="-13.423639" width="0.1472787" height="0.1472787"/>
	<rect x="62.86617" y="-14.483836" width="0.26767215" height="0.26767215"/>
	<rect x="66.89686" y="-9.453148" width="0.20629509" height="0.20629509"/>
	<rect x="64.87148" y="-15.478524" width="0.25704917" height="0.25704917"/>
	<rect x="67.957054" y="-11.392951" width="0.08590164" height="0.08590164"/>
	<rect x="67.923416" y="-13.42659" width="0.15318033" height="0.15318033"/>
	<rect x="69.958824" y="-11.39118" width="0.082360655" height="0.082360655"/>
	<rect x="65.8703" y="-15.479705" width="0.25940984" height="0.25940984"/>
	<rect x="61.856728" y="-14.4932785" width="0.2865574" height="0.2865574"/>
	<rect x="64.90335" y="-9.446655" width="0.19331148" height="0.19331148"/>
	<rect x="64.87915" y="-14.470853" width="0.24170493" height="0.24170493"/>
	<rect x="68.88447" y="-14.465541" width="0.23108196" height="0.23108196"/>
	<rect x="58.85909" y="-14.490918" width="0.28183606" height="0.28183606"/>
	<rect x="69.94584" y="-10.404164" width="0.108327866" height="0.108327866"/>
	<rect x="67.94525" y="-10.404754" width="0.109508194" height="0.109508194"/>
	<rect x="71.85791" y="-8.492098" width="0.2841967" height="0.2841967"/>
	<rect x="61.859676" y="-7.490328" width="0.28065574" height="0.28065574"/>
	<rect x="66.957054" y="-11.392951" width="0.08590164" height="0.08590164"/>
	<rect x="60.854958" y="-14.495049" width="0.29009837" height="0.29009837"/>
	<rect x="70.88033" y="-15.469672" width="0.23934427" height="0.23934427"/>
	<rect x="62.944073" y="-10.405934" width="0.11186886" height="0.11186886"/>
	<rect x="68.90158" y="-9.448426" width="0.19685246" height="0.19685246"/>
	<rect x="69.895676" y="-9.454328" width="0.20865574" height="0.20865574"/>
	<rect x="62.833122" y="-8.516885" width="0.33377048" height="0.33377048"/>
	<rect x="61.94289" y="-10.407115" width="0.114229515" height="0.114229515"/>
	<rect x="68.84374" y="-8.506262" width="0.3125246" height="0.3125246"/>
	<rect x="70.90099" y="-9.449017" width="0.19803278" height="0.19803278"/>
	<rect x="64.85673" y="-7.4932785" width="0.2865574" height="0.2865574"/>
	<rect x="68.92577" y="-13.42423" width="0.14845902" height="0.14845902"/>
	<rect x="71.96001" y="-11.39" width="0.080000006" height="0.080000006"/>
	<rect x="63.912792" y="-9.437213" width="0.17442624" height="0.17442624"/>
	<rect x="67.8284" y="-7.5216064" width="0.3432131" height="0.3432131"/>
	<rect x="71.88387" y="-15.466131" width="0.2322623" height="0.2322623"/>
	<rect x="65.92754" y="-13.422459" width="0.14491804" height="0.14491804"/>
	<rect x="58.926956" y="-13.423049" width="0.14609836" height="0.14609836"/>
	<rect x="67.88092" y="-14.469082" width="0.23816393" height="0.23816393"/>
	<rect x="64.80892" y="-8.541082" width="0.38216394" height="0.38216394"/>
	<rect x="70.886826" y="-14.463181" width="0.22636066" height="0.22636066"/>
	<rect x="61.926365" y="-13.423639" width="0.1472787" height="0.1472787"/>
	<rect x="61.954693" y="-11.395311" width="0.090622954" height="0.090622954"/>
	<rect x="61.82781" y="-8.522197" width="0.34439346" height="0.34439346"/>
	<rect x="62.8762" y="-15.4738035" width="0.24760656" height="0.24760656"/>
	<rect x="66.86853" y="-15.481476" width="0.26295084" height="0.26295084"/>
	<rect x="66.8827" y="-14.467312" width="0.23462296" height="0.23462296"/>
	<rect x="63.954105" y="-11.395902" width="0.091803275" height="0.091803275"/>
	<rect x="67.87384" y="-15.476164" width="0.2523279" height="0.2523279"/>
	<rect x="59.880333" y="-14.469672" width="0.23934427" height="0.23934427"/>
	<rect x="59.87797" y="-15.472033" width="0.24406557" height="0.24406557"/>
	<rect x="68.87915" y="-15.470853" width="0.24170493" height="0.24170493"/>
	<rect x="64.94348" y="-10.406525" width="0.11304919" height="0.11304919"/>
	<rect x="71.94879" y="-10.401213" width="0.10242623" height="0.10242623"/>
	<rect x="58.94348" y="-10.406525" width="0.11304919" height="0.11304919"/>
	<rect x="69.9305" y="-13.419508" width="0.13901639" height="0.13901639"/>
	<rect x="59.94466" y="-10.405344" width="0.11068852" height="0.11068852"/>
	<rect x="63.94466" y="-10.405344" width="0.11068852" height="0.11068852"/>
	<rect x="70.94702" y="-10.402984" width="0.105967216" height="0.105967216"/>
	<rect x="69.84079" y="-8.509213" width="0.31842622" height="0.31842622"/>
	<rect x="63.929317" y="-13.420689" width="0.14137705" height="0.14137705"/>
	<rect x="63.853188" y="-7.4968195" width="0.29363936" height="0.29363936"/>
	<rect x="64.92754" y="-13.422459" width="0.14491804" height="0.14491804"/>
	<rect x="59.913383" y="-9.436623" width="0.1732459" height="0.1732459"/>
	<rect x="59.925777" y="-13.42423" width="0.14845902" height="0.14845902"/>
	<rect x="59.81719" y="-8.53282" width="0.36563936" height="0.36563936"/>
	<rect x="62.841385" y="-7.508623" width="0.31724593" height="0.31724593"/>
	<rect x="60.8225" y="-8.527508" width="0.3550164" height="0.3550164"/>
	<rect x="68.94525" y="-10.404754" width="0.109508194" height="0.109508194"/>
	<rect x="66.92577" y="-13.42423" width="0.14845902" height="0.14845902"/>
	<rect x="71.84374" y="-7.5062623" width="0.3125246" height="0.3125246"/>
	<rect x="69.88033" y="-15.469672" width="0.23934427" height="0.23934427"/>
	<rect x="60.843742" y="-7.5062623" width="0.3125246" height="0.3125246"/>
	<rect x="66.94525" y="-10.404754" width="0.109508194" height="0.109508194"/>
	<rect x="62.954693" y="-11.395311" width="0.090622954" height="0.090622954"/>
	<rect x="70.958824" y="-11.39118" width="0.082360655" height="0.082360655"/>
	<text x="75.100006" y="-16.75" font-size=".9">Netherlands</text>
	<text x="59.100002" y="-16.25" transform="rotate(-90 59.100002,-16.25)" font-size=".6">1995-01-01</text>
	<text x="60.100002" y="-16.25" transform="rotate(-90 60.100002,-16.25)" font-size=".6">1996-01-01</text>
	<text x="61.100002" y="-16.25" transform="rotate(-90 61.100002,-16.25)" font-size=".6">1997-01-01</text>
	<text x="62.100002" y="-16.25" transform="rotate(-90 62.100002,-16.25)" font-size=".6">1998-01-01</text>
	<text x="63.100002" y="-16.25" transform="rotate(-90 63.100002,-16.25)" font-size=".6">1999-01-01</text>
	<text x="64.100006" y="-16.25" transform="rotate(-90 64.100006,-16.25)" font-size=".6">2000-01-01</text>
	<text x="65.100006" y="-16.25" transform="rotate(-90 65.100006,-16.25)" font-size=".6">2001-01-01</text>
	<text x="66.100006" y="-16.25" transform="rotate(-90 66.100006,-16.25)" font-size=".6">2002-01-01</text>
	<text x="67.100006" y="-16.25" transform="rotate(-90 67.100006,-16.25)" font-size=".6">2003-01-01</text>
	<text x="68.100006" y="-16.25" transform="rotate(-90 68.100006,-16.25)" font-size=".6">2004-01-01</text>
	<text x="69.100006" y="-16.25" transform="rotate(-90 69.100006,-16.25)" font-size=".6">2005-01-01</text>
	<text x="70.100006" y="-16.25" transform="rotate(-90 70.100006,-16.25)" font-size=".6">2006-01-01</text>
	<text x="71.100006" y="-16.25" transform="rotate(-90 71.100006,-16.25)" font-size=".6">2007-01-01</text>
	<text x="72.100006" y="-16.25" transform="rotate(-90 72.100006,-16.25)" font-size=".6">2008-01-01</text>
	<text x="73.100006" y="-16.25" transform="rotate(-90 73.100006,-16.25)" font-size=".6">2009-01-01</text>
	<text x="74.100006" y="-16.25" transform="rotate(-90 74.100006,-16.25)" font-size=".6">2010-01-01</text>
	<text x="75.100006" y="-15.25" font-size=".6">India</text>
	<text x="75.100006" y="-14.25" font-size=".6">China</text>
	<text x="75.100006" y="-13.25" font-size=".6">United States</text>
	<text x="75.100006" y="-12.25" font-size=".6">Netherlands</text>
	<text x="75.100006" y="-11.25" font-size=".6">Germany</text>
	<text x="75.100006" y="-10.25" font-size=".6">France</text>
	<text x="75.100006" y="-9.25" font-size=".6">Russian Federation</text>
	<text x="75.100006" y="-8.25" font-size=".6">Malawi</text>
	<text x="75.100006" y="-7.25" font-size=".6">Sudan</text>
	<circle cx="57.600002" cy="-14.75" r="0.5" fill-opacity="0.0" style="stroke:rgb(0,0,0);stroke-width:0.1"/>	<circle cx="57.600002" cy="-7.75" r="0.5" fill-opacity="0.0" style="stroke:rgb(0,0,0);stroke-width:0.1"/>	<rect x="84.8" y="-15.75" width="16.0" height="9.0" fill="none" style="stroke:rgb(0,0,0);stroke-width:0.2"/>
	<rect x="82.8" y="-18.75" width="23.0" height="12.0" fill="none" style="stroke:rgb(0,0,0);stroke-width:0.2"/>
	<rect x="99.06853" y="-15.481476" width="0.26295084" height="0.26295084"/>
	<rect x="88.15469" y="-12.395311" width="0.090622954" height="0.090622954"/>
	<rect x="98.0644" y="-15.485606" width="0.27121314" height="0.27121314"/>
	<rect x="94.02486" y="-7.5251474" width="0.3502951" height="0.3502951"/>
	<rect x="89.07797" y="-14.472033" width="0.24406557" height="0.24406557"/>
	<rect x="87.01541" y="-8.53459" width="0.36918032" height="0.36918032"/>
	<rect x="90.102165" y="-13.447836" width="0.19567214" height="0.19567214"/>
	<rect x="91.100395" y="-13.449607" width="0.19921312" height="0.19921312"/>
	<rect x="95.06971" y="-14.480295" width="0.26059017" height="0.26059017"/>
	<rect x="92.13049" y="-10.419508" width="0.13901639" height="0.13901639"/>
	<rect x="91.091545" y="-9.458459" width="0.21691804" height="0.21691804"/>
	<rect x="87.102165" y="-13.447836" width="0.19567214" height="0.19567214"/>
	<rect x="87.013054" y="-7.5369506" width="0.37390164" height="0.37390164"/>
	<rect x="93.018364" y="-7.5316396" width="0.36327872" height="0.36327872"/>
	<rect x="85.021904" y="-8.528098" width="0.35619673" height="0.35619673"/>
	<rect x="91.04846" y="-15.501541" width="0.30308196" height="0.30308196"/>
	<rect x="91.15528" y="-12.394721" width="0.089442626" height="0.089442626"/>
	<rect x="94.10335" y="-13.446655" width="0.19331148" height="0.19331148"/>
	<rect x="85.15292" y="-12.397082" width="0.09416394" height="0.09416394"/>
	<rect x="93.15705" y="-12.392951" width="0.08590164" height="0.08590164"/>
	<rect x="99.13994" y="-10.410066" width="0.12013115" height="0.12013115"/>
	<rect x="85.04315" y="-15.506852" width="0.31370494" height="0.31370494"/>
	<rect x="91.04492" y="-8.505082" width="0.31016394" height="0.31016394"/>
	<rect x="95.131676" y="-10.418328" width="0.13665573" height="0.13665573"/>
	<rect x="99.11515" y="-13.434853" width="0.16970491" height="0.16970491"/>
	<rect x="94.15705" y="-12.392951" width="0.08590164" height="0.08590164"/>
	<rect x="94.05082" y="-8.49918" width="0.29836068" height="0.29836068"/>
	<rect x="90.0945" y="-9.455508" width="0.2110164" height="0.2110164"/>
	<rect x="86.09981" y="-13.450196" width="0.20039344" height="0.20039344"/>
	<rect x="92.15646" y="-12.393541" width="0.08708197" height="0.08708197"/>
	<rect x="95.10512" y="-13.444885" width="0.1897705" height="0.1897705"/>
	<rect x="86.051414" y="-14.49859" width="0.29718032" height="0.29718032"/>
	<rect x="93.067345" y="-14.482656" width="0.26531148" height="0.26531148"/>
	<rect x="90.04197" y="-15.508033" width="0.31606558" height="0.31606558"/>
	<rect x="97.07561" y="-14.474394" width="0.24878688" height="0.24878688"/>
	<rect x="96.13226" y="-10.417738" width="0.13547541" height="0.13547541"/>
	<rect x="85.07148" y="-14.478524" width="0.25704917" height="0.25704917"/>
	<rect x="92.02486" y="-8.525147" width="0.3502951" height="0.3502951"/>
	<rect x="96.09036" y="-9.45964" width="0.2192787" height="0.2192787"/>
	<rect x="98.06794" y="-7.4820657" width="0.26413116" height="0.26413116"/>
	<rect x="90.07561" y="-14.474394" width="0.24878688" height="0.24878688"/>
	<rect x="96.06322" y="-15.486787" width="0.2735738" height="0.2735738"/>
	<rect x="85.98531" y="-7.5646887" width="0.42937705" height="0.42937705"/>
	<rect x="88.04256" y="-8.507442" width="0.31488523" height="0.31488523"/>
	<rect x="95.07561" y="-8.474394" width="0.24878688" height="0.24878688"/>
	<rect x="98.07738" y="-8.472623" width="0.24524592" height="0.24524592"/>
	<rect x="93.02604" y="-8.523967" width="0.34793445" height="0.34793445"/>
	<rect x="96.07443" y="-14.475574" width="0.25114754" height="0.25114754"/>
	<rect x="94.063805" y="-14.4861965" width="0.27239344" height="0.27239344"/>
	<rect x="91.065575" y="-7.484426" width="0.26885244" height="0.26885244"/>
	<rect x="87.04315" y="-14.506852" width="0.31370494" height="0.31370494"/>
	<rect x="96.15882" y="-12.39118" width="0.082360655" height="0.082360655"/>
	<rect x="100.11456" y="-13.435443" width="0.17088525" height="0.17088525"/>
	<rect x="93.084465" y="-9.465541" width="0.23108196" height="0.23108196"/>
	<rect x="99.0762" y="-14.4738035" width="0.24760656" height="0.24760656"/>
	<rect x="92.09036" y="-9.45964" width="0.2192787" height="0.2192787"/>
	<rect x="97.1063" y="-13.443705" width="0.18740985" height="0.18740985"/>
	<rect x="93.103935" y="-13.446066" width="0.19213115" height="0.19213115"/>
	<rect x="96.067345" y="-7.4826555" width="0.26531148" height="0.26531148"/>
	<rect x="97.09096" y="-8.459049" width="0.21809836" height="0.21809836"/>
	<rect x="95.07266" y="-7.4773445" width="0.25468853" height="0.25468853"/>
	<rect x="87.129906" y="-10.420098" width="0.14019673" height="0.14019673"/>
	<rect x="95.08505" y="-9.464951" width="0.22990166" height="0.22990166"/>
	<rect x="90.12932" y="-10.420689" width="0.14137705" height="0.14137705"/>
	<rect x="92.06499" y="-7.4850163" width="0.2700328" height="0.2700328"/>
	<rect x="91.12872" y="-10.421279" width="0.14255738" height="0.14255738"/>
	<rect x="89.03961" y="-7.5103936" width="0.3207869" height="0.3207869"/>
	<rect x="88.02663" y="-7.523377" width="0.3467541" height="0.3467541"/>
	<rect x="86.15351" y="-12.396492" width="0.09298361" height="0.09298361"/>
	<rect x="98.08682" y="-9.463181" width="0.22636066" height="0.22636066"/>
	<rect x="88.0821" y="-9.467901" width="0.23580328" height="0.23580328"/>
	<rect x="93.05023" y="-15.49977" width="0.29954097" height="0.29954097"/>
	<rect x="87.082695" y="-9.467312" width="0.23462296" height="0.23462296"/>
	<rect x="91.0762" y="-14.4738035" width="0.24760656" height="0.24760656"/>
	<rect x="99.07915" y="-7.4708524" width="0.24170493" height="0.24170493"/>
	<rect x="86.0402" y="-15.509803" width="0.31960657" height="0.31960657"/>
	<rect x="89.15469" y="-12.395311" width="0.090622954" height="0.090622954"/>
	<rect x="96.10453" y="-8.445476" width="0.19095083" height="0.19095083"/>
	<rect x="100.07797" y="-14.472033" width="0.24406557" height="0.24406557"/>
	<rect x="86.12932" y="-10.420689" width="0.14137705" height="0.14137705"/>
	<rect x="88.07148" y="-14.478524" width="0.25704917" height="0.25704917"/>
	<rect x="94.129906" y="-10.420098" width="0.14019673" height="0.14019673"/>
	<rect x="97.131676" y="-10.418328" width="0.13665573" height="0.13665573"/>
	<rect x="89.095085" y="-9.454918" width="0.20983605" height="0.20983605"/>
	<rect x="98.10866" y="-13.441344" width="0.18268852" height="0.18268852"/>
	<rect x="85.098625" y="-13.451377" width="0.2027541" height="0.2027541"/>
	<rect x="100.063805" y="-15.4861965" width="0.27239344" height="0.27239344"/>
	<rect x="92.06971" y="-14.480295" width="0.26059017" height="0.26059017"/>
	<rect x="86.08564" y="-9.46436" width="0.2287213" height="0.2287213"/>
	<rect x="87.15292" y="-12.397082" width="0.09416394" height="0.09416394"/>
	<rect x="90.03961" y="-8.510393" width="0.3207869" height="0.3207869"/>
	<rect x="99.08741" y="-9.46259" width="0.22518031" height="0.22518031"/>
	<rect x="88.13049" y="-10.419508" width="0.13901639" height="0.13901639"/>
	<rect x="89.12932" y="-10.420689" width="0.14137705" height="0.14137705"/>
	<rect x="90.1541" y="-12.395902" width="0.091803275" height="0.091803275"/>
	<rect x="100.09096" y="-9.459049" width="0.21809836" height="0.21809836"/>
	<rect x="89.03489" y="-8.515115" width="0.3302295" height="0.3302295"/>
	<rect x="93.129906" y="-10.420098" width="0.14019673" height="0.14019673"/>
	<rect x="89.10158" y="-13.448426" width="0.19685246" height="0.19685246"/>
	<rect x="90.0526" y="-7.49741" width="0.29481968" height="0.29481968"/>
	<rect x="98.07207" y="-14.477935" width="0.25586888" height="0.25586888"/>
	<rect x="92.102165" y="-13.447836" width="0.19567214" height="0.19567214"/>
	<rect x="87.04256" y="-15.507442" width="0.31488523" height="0.31488523"/>
	<rect x="98.16" y="-12.39" width="0.080000006" height="0.080000006"/>
	<rect x="97.067345" y="-7.4826555" width="0.26531148" height="0.26531148"/>
	<rect x="94.08328" y="-9.466722" width="0.23344262" height="0.23344262"/>
	<rect x="94.053185" y="-15.4968195" width="0.29363936" height="0.29363936"/>
	<rect x="97.063805" y="-15.4861965" width="0.27239344" height="0.27239344"/>
	<rect x="85.07443" y="-7.4755735" width="0.25114754" height="0.25114754"/>
	<rect x="88.04079" y="-15.509213" width="0.31842622" height="0.31842622"/>
	<rect x="85.12754" y="-10.422459" width="0.14491804" height="0.14491804"/>
	<rect x="95.15942" y="-12.39059" width="0.08118033" height="0.08118033"/>
	<rect x="96.105705" y="-13.444295" width="0.18859017" height="0.18859017"/>
	<rect x="99.084465" y="-8.465541" width="0.23108196" height="0.23108196"/>
	<rect x="98.13286" y="-10.417148" width="0.13429509" height="0.13429509"/>
	<rect x="92.06617" y="-15.483836" width="0.26767215" height="0.26767215"/>
	<rect x="97.15882" y="-12.39118" width="0.082360655" height="0.082360655"/>
	<rect x="95.05437" y="-15.49564" width="0.2912787" height="0.2912787"/>
	<rect x="86.084465" y="-8.465541" width="0.23108196" height="0.23108196"/>
	<rect x="100.09213" y="-8.457869" width="0.2157377" height="0.2157377"/>
	<rect x="88.105705" y="-13.444295" width="0.18859017" height="0.18859017"/>
	<rect x="97.09096" y="-9.459049" width="0.21809836" height="0.21809836"/>
	<rect x="89.04492" y="-15.505082" width="0.31016394" height="0.31016394"/>
	<text x="101.3" y="-16.75" font-size=".9">Germany</text>
	<text x="85.3" y="-16.25" transform="rotate(-90 85.3,-16.25)" font-size=".6">1995-01-01</text>
	<text x="86.3" y="-16.25" transform="rotate(-90 86.3,-16.25)" font-size=".6">1996-01-01</text>
	<text x="87.3" y="-16.25" transform="rotate(-90 87.3,-16.25)" font-size=".6">1997-01-01</text>
	<text x="88.3" y="-16.25" transform="rotate(-90 88.3,-16.25)" font-size=".6">1998-01-01</text>
	<text x="89.3" y="-16.25" transform="rotate(-90 89.3,-16.25)" font-size=".6">1999-01-01</text>
	<text x="90.3" y="-16.25" transform="rotate(-90 90.3,-16.25)" font-size=".6">2000-01-01</text>
	<text x="91.3" y="-16.25" transform="rotate(-90 91.3,-16.25)" font-size=".6">2001-01-01</text>
	<text x="92.3" y="-16.25" transform="rotate(-90 92.3,-16.25)" font-size=".6">2002-01-01</text>
	<text x="93.3" y="-16.25" transform="rotate(-90 93.3,-16.25)" font-size=".6">2003-01-01</text>
	<text x="94.3" y="-16.25" transform="rotate(-90 94.3,-16.25)" font-size=".6">2004-01-01</text>
	<text x="95.3" y="-16.25" transform="rotate(-90 95.3,-16.25)" font-size=".6">2005-01-01</text>
	<text x="96.3" y="-16.25" transform="rotate(-90 96.3,-16.25)" font-size=".6">2006-01-01</text>
	<text x="97.3" y="-16.25" transform="rotate(-90 97.3,-16.25)" font-size=".6">2007-01-01</text>
	<text x="98.3" y="-16.25" transform="rotate(-90 98.3,-16.25)" font-size=".6">2008-01-01</text>
	<text x="99.3" y="-16.25" transform="rotate(-90 99.3,-16.25)" font-size=".6">2009-01-01</text>
	<text x="100.3" y="-16.25" transform="rotate(-90 100.3,-16.25)" font-size=".6">2010-01-01</text>
	<text x="101.3" y="-15.25" font-size=".6">India</text>
	<text x="101.3" y="-14.25" font-size=".6">China</text>
	<text x="101.3" y="-13.25" font-size=".6">United States</text>
	<text x="101.3" y="-12.25" font-size=".6">Netherlands</text>
	<text x="101.3" y="-11.25" font-size=".6">Germany</text>
	<text x="101.3" y="-10.25" font-size=".6">France</text>
	<text x="101.3" y="-9.25" font-size=".6">Russian Federation</text>
	<text x="101.3" y="-8.25" font-size=".6">Malawi</text>
	<text x="101.3" y="-7.25" font-size=".6">Sudan</text>
	<circle cx="83.8" cy="-14.75" r="0.5" fill-opacity="0.0" style="stroke:rgb(0,0,0);stroke-width:0.1"/>	<circle cx="83.8" cy="-7.75" r="0.5" fill-opacity="0.0" style="stroke:rgb(0,0,0);stroke-width:0.1"/>	<rect x="111.0" y="-15.75" width="16.0" height="9.0" fill="none" style="stroke:rgb(0,0,0);stroke-width:0.2"/>
	<rect x="109.0" y="-18.75" width="23.0" height="12.0" fill="none" style="stroke:rgb(0,0,0);stroke-width:0.2"/>
	<rect x="118.33049" y="-11.419508" width="0.13901639" height="0.13901639"/>
	<rect x="111.28682" y="-8.463181" width="0.22636066" height="0.22636066"/>
	<rect x="115.28623" y="-13.463771" width="0.227541" height="0.227541"/>
	<rect x="124.24846" y="-7.501541" width="0.30308196" height="0.30308196"/>
	<rect x="122.24669" y="-9.503311" width="0.30662295" height="0.30662295"/>
	<rect x="116.329315" y="-11.420689" width="0.14137705" height="0.14137705"/>
	<rect x="116.24433" y="-9.505672" width="0.31134427" height="0.31134427"/>
	<rect x="112.266754" y="-8.483246" width="0.2664918" height="0.2664918"/>
	<rect x="114.256134" y="-9.493869" width="0.2877377" height="0.2877377"/>
	<rect x="112.24787" y="-7.502131" width="0.3042623" height="0.3042623"/>
	<rect x="112.329315" y="-11.420689" width="0.14137705" height="0.14137705"/>
	<rect x="113.23607" y="-8.513934" width="0.32786885" height="0.32786885"/>
	<rect x="123.347015" y="-12.402984" width="0.105967216" height="0.105967216"/>
	<rect x="112.34466" y="-12.405344" width="0.11068852" height="0.11068852"/>
	<rect x="113.28505" y="-13.464951" width="0.22990166" height="0.22990166"/>
	<rect x="115.329315" y="-11.420689" width="0.14137705" height="0.14137705"/>
	<rect x="124.24964" y="-9.5003605" width="0.30072132" height="0.30072132"/>
	<rect x="117.25377" y="-14.496229" width="0.292459" height="0.292459"/>
	<rect x="115.174095" y="-8.575902" width="0.45180327" height="0.45180327"/>
	<rect x="115.26263" y="-14.487377" width="0.2747541" height="0.2747541"/>
	<rect x="119.28859" y="-13.46141" width="0.22281967" height="0.22281967"/>
	<rect x="112.259674" y="-9.490328" width="0.28065574" height="0.28065574"/>
	<rect x="116.34466" y="-12.405344" width="0.11068852" height="0.11068852"/>
	<rect x="119.25495" y="-14.495049" width="0.29009837" height="0.29009837"/>
	<rect x="119.3299" y="-11.420098" width="0.14019673" height="0.14019673"/>
	<rect x="119.345245" y="-12.404754" width="0.109508194" height="0.109508194"/>
	<rect x="120.28623" y="-13.463771" width="0.227541" height="0.227541"/>
	<rect x="114.20479" y="-8.545213" width="0.39042625" height="0.39042625"/>
	<rect x="114.26263" y="-14.487377" width="0.2747541" height="0.2747541"/>
	<rect x="118.266754" y="-15.483246" width="0.2664918" height="0.2664918"/>
	<rect x="120.203606" y="-7.5463934" width="0.3927869" height="0.3927869"/>
	<rect x="114.33049" y="-11.419508" width="0.13901639" height="0.13901639"/>
	<rect x="121.23961" y="-15.510393" width="0.3207869" height="0.3207869"/>
	<rect x="122.2461" y="-14.5039015" width="0.30780327" height="0.30780327"/>
	<rect x="116.28623" y="-13.463771" width="0.227541" height="0.227541"/>
	<rect x="116.259674" y="-14.490328" width="0.28065574" height="0.28065574"/>
	<rect x="125.339935" y="-11.410066" width="0.12013115" height="0.12013115"/>
	<rect x="119.24255" y="-9.507442" width="0.31488523" height="0.31488523"/>
	<rect x="125.233116" y="-7.5168853" width="0.33377048" height="0.33377048"/>
	<rect x="124.25141" y="-15.49859" width="0.29718032" height="0.29718032"/>
	<rect x="111.343475" y="-12.406525" width="0.11304919" height="0.11304919"/>
	<rect x="122.23193" y="-7.5180655" width="0.33613116" height="0.33613116"/>
	<rect x="116.17941" y="-7.57059" width="0.44118032" height="0.44118032"/>
	<rect x="116.23547" y="-15.514524" width="0.3290492" height="0.3290492"/>
	<rect x="121.28623" y="-13.463771" width="0.227541" height="0.227541"/>
	<rect x="118.34406" y="-12.405934" width="0.11186886" height="0.11186886"/>
	<rect x="113.24374" y="-14.506262" width="0.3125246" height="0.3125246"/>
	<rect x="125.263214" y="-14.486787" width="0.2735738" height="0.2735738"/>
	<rect x="112.20951" y="-15.540492" width="0.38098362" height="0.38098362"/>
	<rect x="121.345245" y="-12.404754" width="0.109508194" height="0.109508194"/>
	<rect x="125.28977" y="-13.46023" width="0.22045901" height="0.22045901"/>
	<rect x="115.34406" y="-12.405934" width="0.11186886" height="0.11186886"/>
	<rect x="120.233116" y="-9.516885" width="0.33377048" height="0.33377048"/>
	<rect x="121.33167" y="-11.418328" width="0.13665573" height="0.13665573"/>
	<rect x="121.25908" y="-14.490918" width="0.28183606" height="0.28183606"/>
	<rect x="122.2644" y="-15.485606" width="0.27121314" height="0.27121314"/>
	<rect x="119.19594" y="-7.5540657" width="0.40813118" height="0.40813118"/>
	<rect x="115.22072" y="-7.5292788" width="0.35855737" height="0.35855737"/>
	<rect x="122.33226" y="-11.417738" width="0.13547541" height="0.13547541"/>
	<rect x="124.332855" y="-11.417148" width="0.13429509" height="0.13429509"/>
	<rect x="123.28328" y="-13.466722" width="0.23344262" height="0.23344262"/>
	<rect x="117.32872" y="-11.421279" width="0.14255738" height="0.14255738"/>
	<rect x="112.28505" y="-13.464951" width="0.22990166" height="0.22990166"/>
	<rect x="117.227806" y="-7.522197" width="0.34439346" height="0.34439346"/>
	<rect x="120.25554" y="-14.494459" width="0.28891805" height="0.28891805"/>
	<rect x="117.233116" y="-9.516885" width="0.33377048" height="0.33377048"/>
	<rect x="113.34229" y="-12.407705" width="0.11540984" height="0.11540984"/>
	<rect x="117.28741" y="-13.46259" width="0.22518031" height="0.22518031"/>
	<rect x="113.24374" y="-7.5062623" width="0.3125246" height="0.3125246"/>
	<rect x="117.343475" y="-12.406525" width="0.11304919" height="0.11304919"/>
	<rect x="117.14341" y="-8.60659" width="0.5131804" height="0.5131804"/>
	<rect x="122.28564" y="-13.46436" width="0.2287213" height="0.2287213"/>
	<rect x="111.20951" y="-15.540492" width="0.38098362" height="0.38098362"/>
	<rect x="120.3299" y="-11.420098" width="0.14019673" height="0.14019673"/>
	<rect x="116.14341" y="-8.60659" width="0.5131804" height="0.5131804"/>
	<rect x="113.22131" y="-15.528688" width="0.35737705" height="0.35737705"/>
	<rect x="122.34583" y="-12.404164" width="0.108327866" height="0.108327866"/>
	<rect x="114.22367" y="-15.526328" width="0.35265574" height="0.35265574"/>
	<rect x="120.345245" y="-12.404754" width="0.109508194" height="0.109508194"/>
	<rect x="121.23252" y="-9.517475" width="0.33495083" height="0.33495083"/>
	<rect x="111.25082" y="-7.4991803" width="0.29836068" height="0.29836068"/>
	<rect x="117.256134" y="-15.493869" width="0.2877377" height="0.2877377"/>
	<rect x="124.348785" y="-12.401213" width="0.10242623" height="0.10242623"/>
	<rect x="118.28918" y="-13.460819" width="0.22163935" height="0.22163935"/>
	<rect x="119.252594" y="-15.49741" width="0.29481968" height="0.29481968"/>
	<rect x="125.24551" y="-15.504492" width="0.30898362" height="0.30898362"/>
	<rect x="114.34289" y="-12.407115" width="0.114229515" height="0.114229515"/>
	<rect x="114.28741" y="-13.46259" width="0.22518031" height="0.22518031"/>
	<rect x="125.23607" y="-9.513934" width="0.32786885" height="0.32786885"/>
	<rect x="118.24787" y="-14.502131" width="0.3042623" height="0.3042623"/>
	<rect x="111.27148" y="-14.478524" width="0.25704917" height="0.25704917"/>
	<rect x="118.194756" y="-7.555246" width="0.4104918" height="0.4104918"/>
	<rect x="113.3299" y="-11.420098" width="0.14019673" height="0.14019673"/>
	<rect x="120.24078" y="-15.509213" width="0.31842622" height="0.31842622"/>
	<rect x="111.32754" y="-11.422459" width="0.14491804" height="0.14491804"/>
	<rect x="123.24905" y="-15.500951" width="0.30190167" height="0.30190167"/>
	<rect x="115.257904" y="-9.492098" width="0.2841967" height="0.2841967"/>
	<rect x="115.26026" y="-15.4897375" width="0.27947542" height="0.27947542"/>
	<rect x="123.25377" y="-9.496229" width="0.292459" height="0.292459"/>
	<rect x="112.23961" y="-14.510393" width="0.3207869" height="0.3207869"/>
	<rect x="123.252594" y="-14.49741" width="0.29481968" height="0.29481968"/>
	<rect x="118.14341" y="-8.60659" width="0.5131804" height="0.5131804"/>
	<rect x="124.28328" y="-13.466722" width="0.23344262" height="0.23344262"/>
	<rect x="121.207146" y="-7.5428524" width="0.38570493" height="0.38570493"/>
	<rect x="123.2402" y="-7.5098033" width="0.31960657" height="0.31960657"/>
	<rect x="114.24315" y="-7.5068526" width="0.31370494" height="0.31370494"/>
	<rect x="111.28328" y="-13.466722" width="0.23344262" height="0.23344262"/>
	<rect x="113.252" y="-9.498" width="0.296" height="0.296"/>
	<rect x="118.25377" y="-9.496229" width="0.292459" height="0.292459"/>
	<rect x="123.33167" y="-11.418328" width="0.13665573" height="0.13665573"/>
	<rect x="124.252" y="-14.498" width="0.296" height="0.296"/>
	<text x="127.5" y="-16.75" font-size=".9">France</text>
	<text x="111.5" y="-16.25" transform="rotate(-90 111.5,-16.25)" font-size=".6">1995-01-01</text>
	<text x="112.5" y="-16.25" transform="rotate(-90 112.5,-16.25)" font-size=".6">1996-01-01</text>
	<text x="113.5" y="-16.25" transform="rotate(-90 113.5,-16.25)" font-size=".6">1997-01-01</text>
	<text x="114.5" y="-16.25" transform="rotate(-90 114.5,-16.25)" font-size=".6">1998-01-01</text>
	<text x="115.5" y="-16.25" transform="rotate(-90 115.5,-16.25)" font-size=".6">1999-01-01</text>
	<text x="116.5" y="-16.25" transform="rotate(-90 116.5,-16.25)" font-size=".6">2000-01-01</text>
	<text x="117.5" y="-16.25" transform="rotate(-90 117.5,-16.25)" font-size=".6">2001-01-01</text>
	<text x="118.5" y="-16.25" transform="rotate(-90 118.5,-16.25)" font-size=".6">2002-01-01</text>
	<text x="119.5" y="-16.25" transform="rotate(-90 119.5,-16.25)" font-size=".6">2003-01-01</text>
	<text x="120.5" y="-16.25" transform="rotate(-90 120.5,-16.25)" font-size=".6">2004-01-01</text>
	<text x="121.5" y="-16.25" transform="rotate(-90 121.5,-16.25)" font-size=".6">2005-01-01</text>
	<text x="122.5" y="-16.25" transform="rotate(-90 122.5,-16.25)" font-size=".6">2006-01-01</text>
	<text x="123.5" y="-16.25" transform="rotate(-90 123.5,-16.25)" font-size=".6">2007-01-01</text>
	<text x="124.5" y="-16.25" transform="rotate(-90 124.5,-16.25)" font-size=".6">2008-01-01</text>
	<text x="125.5" y="-16.25" transform="rotate(-90 125.5,-16.25)" font-size=".6">2009-01-01</text>
	<text x="126.5" y="-16.25" transform="rotate(-90 126.5,-16.25)" font-size=".6">2010-01-01</text>
	<text x="127.5" y="-15.25" font-size=".6">India</text>
	<text x="127.5" y="-14.25" font-size=".6">China</text>
	<text x="127.5" y="-13.25" font-size=".6">United States</text>
	<text x="127.5" y="-12.25" font-size=".6">Netherlands</text>
	<text x="127.5" y="-11.25" font-size=".6">Germany</text>
	<text x="127.5" y="-10.25" font-size=".6">France</text>
	<text x="127.5" y="-9.25" font-size=".6">Russian Federation</text>
	<text x="127.5" y="-8.25" font-size=".6">Malawi</text>
	<text x="127.5" y="-7.25" font-size=".6">Sudan</text>
	<circle cx="110.0" cy="-14.75" r="0.5" fill-opacity="0.0" style="stroke:rgb(0,0,0);stroke-width:0.1"/>	<circle cx="110.0" cy="-7.75" r="0.5" fill-opacity="0.0" style="stroke:rgb(0,0,0);stroke-width:0.1"/>	<rect x="-20.0" y="4.75" width="16.0" height="9.0" fill="none" style="stroke:rgb(0,0,0);stroke-width:0.2"/>
	<rect x="-22.0" y="1.75" width="23.0" height="12.0" fill="none" style="stroke:rgb(0,0,0);stroke-width:0.2"/>
	<rect x="-13.766885" y="9.983115" width="0.33377048" height="0.33377048"/>
	<rect x="-7.7940326" y="12.955967" width="0.38806558" height="0.38806558"/>
	<rect x="-7.7462296" y="10.003771" width="0.292459" height="0.292459"/>
	<rect x="-6.7143607" y="12.03564" width="0.2287213" height="0.2287213"/>
	<rect x="-15.704918" y="9.045082" width="0.20983605" height="0.20983605"/>
	<rect x="-15.707278" y="6.0427213" width="0.2145574" height="0.2145574"/>
	<rect x="-9.767475" y="9.982525" width="0.33495083" height="0.33495083"/>
	<rect x="-18.714361" y="9.03564" width="0.2287213" height="0.2287213"/>
	<rect x="-7.709049" y="9.040951" width="0.21809836" height="0.21809836"/>
	<rect x="-7.7533116" y="6.9966884" width="0.30662295" height="0.30662295"/>
	<rect x="-13.756262" y="4.9937377" width="0.3125246" height="0.3125246"/>
	<rect x="-18.777508" y="4.9724917" width="0.3550164" height="0.3550164"/>
	<rect x="-16.68131" y="8.068688" width="0.16262296" height="0.16262296"/>
	<rect x="-12.70964" y="9.04036" width="0.2192787" height="0.2192787"/>
	<rect x="-13.758623" y="6.991377" width="0.31724593" height="0.31724593"/>
	<rect x="-7.6919346" y="6.0580654" width="0.18386886" height="0.18386886"/>
	<rect x="-4.697836" y="6.052164" width="0.19567214" height="0.19567214"/>
	<rect x="-10.766885" y="9.983115" width="0.33377048" height="0.33377048"/>
	<rect x="-5.6984262" y="6.0515738" width="0.19685246" height="0.19685246"/>
	<rect x="-17.718493" y="6.0315084" width="0.23698361" height="0.23698361"/>
	<rect x="-17.685442" y="8.064557" width="0.17088525" height="0.17088525"/>
	<rect x="-14.746229" y="7.0037704" width="0.292459" height="0.292459"/>
	<rect x="-8.70964" y="9.04036" width="0.2192787" height="0.2192787"/>
	<rect x="-5.7639346" y="9.986066" width="0.32786885" height="0.32786885"/>
	<rect x="-15.74918" y="7.0008197" width="0.29836068" height="0.29836068"/>
	<rect x="-10.698426" y="6.0515738" width="0.19685246" height="0.19685246"/>
	<rect x="-18.735016" y="7.0149837" width="0.2700328" height="0.2700328"/>
	<rect x="-17.717312" y="9.032688" width="0.23462296" height="0.23462296"/>
	<rect x="-11.803475" y="12.946525" width="0.4069508" height="0.4069508"/>
	<rect x="-10.752131" y="6.997869" width="0.3042623" height="0.3042623"/>
	<rect x="-12.815868" y="12.934132" width="0.43173772" height="0.43173772"/>
	<rect x="-11.757442" y="9.992558" width="0.31488523" height="0.31488523"/>
	<rect x="-9.74977" y="7.0002294" width="0.29954097" height="0.29954097"/>
	<rect x="-17.74741" y="7.00259" width="0.29481968" height="0.29481968"/>
	<rect x="-17.748" y="10.002" width="0.296" height="0.296"/>
	<rect x="-12.698426" y="6.0515738" width="0.19685246" height="0.19685246"/>
	<rect x="-4.7633443" y="4.9866557" width="0.32668853" height="0.32668853"/>
	<rect x="-16.717901" y="9.032099" width="0.23580328" height="0.23580328"/>
	<rect x="-11.769836" y="6.980164" width="0.33967215" height="0.33967215"/>
	<rect x="-14.705508" y="9.044492" width="0.2110164" height="0.2110164"/>
	<rect x="-16.760393" y="6.9896064" width="0.3207869" height="0.3207869"/>
	<rect x="-11.715541" y="9.034459" width="0.23108196" height="0.23108196"/>
	<rect x="-14.85659" y="4.8934097" width="0.5131804" height="0.5131804"/>
	<rect x="-9.769836" y="4.980164" width="0.33967215" height="0.33967215"/>
	<rect x="-11.758033" y="4.991967" width="0.31606558" height="0.31606558"/>
	<rect x="-10.716722" y="9.033278" width="0.23344262" height="0.23344262"/>
	<rect x="-11.696655" y="6.0533442" width="0.19331148" height="0.19331148"/>
	<rect x="-15.852459" y="4.897541" width="0.50491804" height="0.50491804"/>
	<rect x="-8.694885" y="6.0551147" width="0.1897705" height="0.1897705"/>
	<rect x="-4.709049" y="9.040951" width="0.21809836" height="0.21809836"/>
	<rect x="-10.71141" y="8.03859" width="0.22281967" height="0.22281967"/>
	<rect x="-5.751541" y="6.998459" width="0.30308196" height="0.30308196"/>
	<rect x="-18.724394" y="6.0256066" width="0.24878688" height="0.24878688"/>
	<rect x="-14.755672" y="9.994328" width="0.31134427" height="0.31134427"/>
	<rect x="-12.769246" y="6.980754" width="0.3384918" height="0.3384918"/>
	<rect x="-6.6960654" y="6.0539346" width="0.19213115" height="0.19213115"/>
	<rect x="-16.71141" y="6.03859" width="0.22281967" height="0.22281967"/>
	<rect x="-15.701377" y="8.048623" width="0.2027541" height="0.2027541"/>
	<rect x="-6.7503605" y="9.9996395" width="0.30072132" height="0.30072132"/>
	<rect x="-10.766885" y="4.9831147" width="0.33377048" height="0.33377048"/>
	<rect x="-4.752131" y="6.997869" width="0.3042623" height="0.3042623"/>
	<rect x="-6.792262" y="12.957738" width="0.38452458" height="0.38452458"/>
	<rect x="-14.687213" y="8.062787" width="0.17442624" height="0.17442624"/>
	<rect x="-13.696655" y="8.053345" width="0.19331148" height="0.19331148"/>
	<rect x="-12.697836" y="8.052164" width="0.19567214" height="0.19567214"/>
	<rect x="-18.740328" y="10.009672" width="0.28065574" height="0.28065574"/>
	<rect x="-12.746229" y="10.003771" width="0.292459" height="0.292459"/>
	<rect x="-6.701377" y="8.048623" width="0.2027541" height="0.2027541"/>
	<rect x="-8.753311" y="9.996689" width="0.30662295" height="0.30662295"/>
	<rect x="-8.796393" y="12.953607" width="0.3927869" height="0.3927869"/>
	<rect x="-6.7131805" y="9.036819" width="0.22636066" height="0.22636066"/>
	<rect x="-9.714951" y="9.035049" width="0.22990166" height="0.22990166"/>
	<rect x="-13.708459" y="9.041541" width="0.21691804" height="0.21691804"/>
	<rect x="-6.7533116" y="6.9966884" width="0.30662295" height="0.30662295"/>
	<rect x="-17.776918" y="4.973082" width="0.35383606" height="0.35383606"/>
	<rect x="-9.798164" y="12.951836" width="0.39632788" height="0.39632788"/>
	<rect x="-7.6990166" y="8.050983" width="0.19803278" height="0.19803278"/>
	<rect x="-14.706689" y="6.0433116" width="0.21337704" height="0.21337704"/>
	<rect x="-12.7468195" y="5.0031805" width="0.29363936" height="0.29363936"/>
	<rect x="-5.7969837" y="12.953016" width="0.39396724" height="0.39396724"/>
	<rect x="-15.742098" y="10.007902" width="0.2841967" height="0.2841967"/>
	<rect x="-8.74977" y="7.0002294" width="0.29954097" height="0.29954097"/>
	<rect x="-13.704328" y="6.045672" width="0.20865574" height="0.20865574"/>
	<rect x="-8.704328" y="8.045672" width="0.20865574" height="0.20865574"/>
	<rect x="-7.71259" y="5.03741" width="0.22518031" height="0.22518031"/>
	<rect x="-6.734426" y="5.015574" width="0.26885244" height="0.26885244"/>
	<rect x="-18.686623" y="8.063377" width="0.1732459" height="0.1732459"/>
	<rect x="-5.7456393" y="5.0043607" width="0.2912787" height="0.2912787"/>
	<rect x="-9.694295" y="6.055705" width="0.18859017" height="0.18859017"/>
	<rect x="-16.784" y="4.966" width="0.368" height="0.368"/>
	<rect x="-11.703148" y="8.046852" width="0.20629509" height="0.20629509"/>
	<rect x="-10.78518" y="12.96482" width="0.37036067" height="0.37036067"/>
	<rect x="-16.74387" y="10.006131" width="0.2877377" height="0.2877377"/>
	<rect x="-9.698426" y="8.051574" width="0.19685246" height="0.19685246"/>
	<rect x="-8.710819" y="5.0391803" width="0.22163935" height="0.22163935"/>
	<rect x="-5.71259" y="9.03741" width="0.22518031" height="0.22518031"/>
	<text x="-3.5" y="3.75" font-size=".9">Russian Federation</text>
	<text x="-19.5" y="4.25" transform="rotate(-90 -19.5,4.25)" font-size=".6">1995-01-01</text>
	<text x="-18.5" y="4.25" transform="rotate(-90 -18.5,4.25)" font-size=".6">1996-01-01</text>
	<text x="-17.5" y="4.25" transform="rotate(-90 -17.5,4.25)" font-size=".6">1997-01-01</text>
	<text x="-16.5" y="4.25" transform="rotate(-90 -16.5,4.25)" font-size=".6">1998-01-01</text>
	<text x="-15.5" y="4.25" transform="rotate(-90 -15.5,4.25)" font-size=".6">1999-01-01</text>
	<text x="-14.5" y="4.25" transform="rotate(-90 -14.5,4.25)" font-size=".6">2000-01-01</text>
	<text x="-13.5" y="4.25" transform="rotate(-90 -13.5,4.25)" font-size=".6">2001-01-01</text>
	<text x="-12.5" y="4.25" transform="rotate(-90 -12.5,4.25)" font-size=".6">2002-01-01</text>
	<text x="-11.5" y="4.25" transform="rotate(-90 -11.5,4.25)" font-size=".6">2003-01-01</text>
	<text x="-10.5" y="4.25" transform="rotate(-90 -10.5,4.25)" font-size=".6">2004-01-01</text>
	<text x="-9.5" y="4.25" transform="rotate(-90 -9.5,4.25)" font-size=".6">2005-01-01</text>
	<text x="-8.5" y="4.25" transform="rotate(-90 -8.5,4.25)" font-size=".6">2006-01-01</text>
	<text x="-7.5" y="4.25" transform="rotate(-90 -7.5,4.25)" font-size=".6">2007-01-01</text>
	<text x="-6.5" y="4.25" transform="rotate(-90 -6.5,4.25)" font-size=".6">2008-01-01</text>
	<text x="-5.5" y="4.25" transform="rotate(-90 -5.5,4.25)" font-size=".6">2009-01-01</text>
	<text x="-4.5" y="4.25" transform="rotate(-90 -4.5,4.25)" font-size=".6">2010-01-01</text>
	<text x="-3.5" y="5.25" font-size=".6">India</text>
	<text x="-3.5" y="6.25" font-size=".6">China</text>
	<text x="-3.5" y="7.25" font-size=".6">United States</text>
	<text x="-3.5" y="8.25" font-size=".6">Netherlands</text>
	<text x="-3.5" y="9.25" font-size=".6">Germany</text>
	<text x="-3.5" y="10.25" font-size=".6">France</text>
	<text x="-3.5" y="11.25" font-size=".6">Russian Federation</text>
	<text x="-3.5" y="12.25" font-size=".6">Malawi</text>
	<text x="-3.5" y="13.25" font-size=".6">Sudan</text>
	<circle cx="-21.0" cy="5.75" r="0.5" fill-opacity="0.0" style="stroke:rgb(0,0,0);stroke-width:0.1"/>	<circle cx="-21.0" cy="12.75" r="0.5" fill-opacity="0.0" style="stroke:rgb(0,0,0);stroke-width:0.1"/>	<rect x="6.200001" y="4.75" width="16.0" height="9.0" fill="none" style="stroke:rgb(0,0,0);stroke-width:0.2"/>
	<rect x="4.200001" y="1.75" width="23.0" height="12.0" fill="none" style="stroke:rgb(0,0,0);stroke-width:0.2"/>
	<rect x="15.450821" y="9.00082" width="0.29836068" height="0.29836068"/>
	<rect x="21.492132" y="9.042131" width="0.2157377" height="0.2157377"/>
	<rect x="13.44846" y="7.998459" width="0.30308196" height="0.30308196"/>
	<rect x="16.237772" y="5.7877703" width="0.72445905" height="0.72445905"/>
	<rect x="11.3434105" y="9.89341" width="0.5131804" height="0.5131804"/>
	<rect x="6.48682" y="10.036819" width="0.22636066" height="0.22636066"/>
	<rect x="6.421902" y="8.971902" width="0.35619673" height="0.35619673"/>
	<rect x="6.3929844" y="4.9429836" width="0.4140328" height="0.4140328"/>
	<rect x="7.3705583" y="4.9205575" width="0.45888525" height="0.45888525"/>
	<rect x="12.3434105" y="9.89341" width="0.5131804" height="0.5131804"/>
	<rect x="9.3504925" y="4.9004917" width="0.49901637" height="0.49901637"/>
	<rect x="13.406558" y="4.9565573" width="0.38688526" height="0.38688526"/>
	<rect x="12.408918" y="7.958918" width="0.38216394" height="0.38216394"/>
	<rect x="13.475607" y="7.0256066" width="0.24878688" height="0.24878688"/>
	<rect x="12.356394" y="4.9063935" width="0.48721313" height="0.48721313"/>
	<rect x="16.443739" y="7.9937377" width="0.3125246" height="0.3125246"/>
	<rect x="16.470886" y="7.0208855" width="0.25822952" height="0.25822952"/>
	<rect x="20.484459" y="7.034459" width="0.23108196" height="0.23108196"/>
	<rect x="21.476198" y="7.0261965" width="0.24760656" height="0.24760656"/>
	<rect x="8.436067" y="9.986066" width="0.32786885" height="0.32786885"/>
	<rect x="10.434886" y="8.984885" width="0.3302295" height="0.3302295"/>
	<rect x="15.44905" y="6.999049" width="0.30190167" height="0.30190167"/>
	<rect x="8.34105" y="4.8910494" width="0.51790166" height="0.51790166"/>
	<rect x="12.444919" y="8.994918" width="0.31016394" height="0.31016394"/>
	<rect x="17.440788" y="7.990787" width="0.31842622" height="0.31842622"/>
	<rect x="14.433116" y="6.9831147" width="0.33377048" height="0.33377048"/>
	<rect x="11.468525" y="7.0185246" width="0.26295084" height="0.26295084"/>
	<rect x="16.475607" y="9.025606" width="0.24878688" height="0.24878688"/>
	<rect x="19.344591" y="4.8945904" width="0.5108197" height="0.5108197"/>
	<rect x="10.372919" y="4.922918" width="0.45416394" height="0.45416394"/>
	<rect x="11.366427" y="4.916426" width="0.46714756" height="0.46714756"/>
	<rect x="11.439608" y="8.989607" width="0.3207869" height="0.3207869"/>
	<rect x="8.443149" y="6.9931474" width="0.31370494" height="0.31370494"/>
	<rect x="20.391214" y="5.941213" width="0.41757378" height="0.41757378"/>
	<rect x="9.442558" y="8.992558" width="0.31488523" height="0.31488523"/>
	<rect x="17.33928" y="4.889279" width="0.5214426" height="0.5214426"/>
	<rect x="17.478558" y="7.0285573" width="0.24288526" height="0.24288526"/>
	<rect x="7.417181" y="7.9671803" width="0.36563936" height="0.36563936"/>
	<rect x="19.48564" y="11.03564" width="0.2287213" height="0.2287213"/>
	<rect x="15.275541" y="5.825541" width="0.6489181" height="0.6489181"/>
	<rect x="18.490952" y="9.040951" width="0.21809836" height="0.21809836"/>
	<rect x="15.371738" y="4.9217377" width="0.4565246" height="0.4565246"/>
	<rect x="6.4118695" y="7.961869" width="0.37626228" height="0.37626228"/>
	<rect x="21.373508" y="4.923508" width="0.45298362" height="0.45298362"/>
	<rect x="20.484459" y="9.034459" width="0.23108196" height="0.23108196"/>
	<rect x="13.424853" y="8.974853" width="0.3502951" height="0.3502951"/>
	<rect x="21.317444" y="5.8674426" width="0.56511474" height="0.56511474"/>
	<rect x="6.4968534" y="7.0468526" width="0.20629509" height="0.20629509"/>
	<rect x="9.427804" y="7.977803" width="0.34439346" height="0.34439346"/>
	<rect x="13.201771" y="5.7517705" width="0.796459" height="0.796459"/>
	<rect x="17.2" y="5.75" width="0.8" height="0.8"/>
	<rect x="18.437246" y="7.987246" width="0.3255082" height="0.3255082"/>
	<rect x="12.45141" y="7.00141" width="0.29718032" height="0.29718032"/>
	<rect x="9.404788" y="9.954787" width="0.39042625" height="0.39042625"/>
	<rect x="19.327477" y="5.8774753" width="0.5450492" height="0.5450492"/>
	<rect x="16.367607" y="4.9176064" width="0.46478686" height="0.46478686"/>
	<rect x="11.495083" y="8.045082" width="0.20983605" height="0.20983605"/>
	<rect x="10.433116" y="7.9831147" width="0.33377048" height="0.33377048"/>
	<rect x="19.476198" y="7.0261965" width="0.24760656" height="0.24760656"/>
	<rect x="18.469116" y="7.019115" width="0.2617705" height="0.2617705"/>
	<rect x="19.457903" y="8.007902" width="0.2841967" height="0.2841967"/>
	<rect x="7.466755" y="10.016754" width="0.2664918" height="0.2664918"/>
	<rect x="14.313313" y="5.8633113" width="0.5733771" height="0.5733771"/>
	<rect x="8.415411" y="8.96541" width="0.36918032" height="0.36918032"/>
	<rect x="14.428394" y="7.9783936" width="0.3432131" height="0.3432131"/>
	<rect x="9.441378" y="6.991377" width="0.31724593" height="0.31724593"/>
	<rect x="14.426034" y="8.976033" width="0.34793445" height="0.34793445"/>
	<rect x="8.422493" y="7.9724917" width="0.3550164" height="0.3550164"/>
	<rect x="14.38059" y="4.93059" width="0.4388197" height="0.4388197"/>
	<rect x="18.357574" y="4.9075737" width="0.48485246" height="0.48485246"/>
	<rect x="10.439017" y="6.9890165" width="0.3219672" height="0.3219672"/>
	<rect x="13.3434105" y="9.89341" width="0.5131804" height="0.5131804"/>
	<rect x="15.435476" y="7.9854755" width="0.3290492" height="0.3290492"/>
	<rect x="18.263739" y="5.813738" width="0.67252463" height="0.67252463"/>
	<rect x="7.48446" y="9.034459" width="0.23108196" height="0.23108196"/>
	<rect x="7.445509" y="6.995508" width="0.30898362" height="0.30898362"/>
	<rect x="17.504526" y="9.054524" width="0.19095083" height="0.19095083"/>
	<rect x="19.477377" y="9.027377" width="0.24524592" height="0.24524592"/>
	<rect x="10.374099" y="9.924098" width="0.45180327" height="0.45180327"/>
	<rect x="20.398296" y="4.948295" width="0.4034098" height="0.4034098"/>
	<text x="22.7" y="3.75" font-size=".9">Malawi</text>
	<text x="6.700001" y="4.25" transform="rotate(-90 6.700001,4.25)" font-size=".6">1995-01-01</text>
	<text x="7.700001" y="4.25" transform="rotate(-90 7.700001,4.25)" font-size=".6">1996-01-01</text>
	<text x="8.700001" y="4.25" transform="rotate(-90 8.700001,4.25)" font-size=".6">1997-01-01</text>
	<text x="9.700001" y="4.25" transform="rotate(-90 9.700001,4.25)" font-size=".6">1998-01-01</text>
	<text x="10.700001" y="4.25" transform="rotate(-90 10.700001,4.25)" font-size=".6">1999-01-01</text>
	<text x="11.700001" y="4.25" transform="rotate(-90 11.700001,4.25)" font-size=".6">2000-01-01</text>
	<text x="12.700001" y="4.25" transform="rotate(-90 12.700001,4.25)" font-size=".6">2001-01-01</text>
	<text x="13.700001" y="4.25" transform="rotate(-90 13.700001,4.25)" font-size=".6">2002-01-01</text>
	<text x="14.700001" y="4.25" transform="rotate(-90 14.700001,4.25)" font-size=".6">2003-01-01</text>
	<text x="15.700001" y="4.25" transform="rotate(-90 15.700001,4.25)" font-size=".6">2004-01-01</text>
	<text x="16.7" y="4.25" transform="rotate(-90 16.7,4.25)" font-size=".6">2005-01-01</text>
	<text x="17.7" y="4.25" transform="rotate(-90 17.7,4.25)" font-size=".6">2006-01-01</text>
	<text x="18.7" y="4.25" transform="rotate(-90 18.7,4.25)" font-size=".6">2007-01-01</text>
	<text x="19.7" y="4.25" transform="rotate(-90 19.7,4.25)" font-size=".6">2008-01-01</text>
	<text x="20.7" y="4.25" transform="rotate(-90 20.7,4.25)" font-size=".6">2009-01-01</text>
	<text x="21.7" y="4.25" transform="rotate(-90 21.7,4.25)" font-size=".6">2010-01-01</text>
	<text x="22.7" y="5.25" font-size=".6">India</text>
	<text x="22.7" y="6.25" font-size=".6">China</text>
	<text x="22.7" y="7.25" font-size=".6">United States</text>
	<text x="22.7" y="8.25" font-size=".6">Netherlands</text>
	<text x="22.7" y="9.25" font-size=".6">Germany</text>
	<text x="22.7" y="10.25" font-size=".6">France</text>
	<text x="22.7" y="11.25" font-size=".6">Russian Federation</text>
	<text x="22.7" y="12.25" font-size=".6">Malawi</text>
	<text x="22.7" y="13.25" font-size=".6">Sudan</text>
	<circle cx="5.200001" cy="5.75" r="0.5" fill-opacity="0.0" style="stroke:rgb(0,0,0);stroke-width:0.1"/>	<circle cx="5.200001" cy="12.75" r="0.5" fill-opacity="0.0" style="stroke:rgb(0,0,0);stroke-width:0.1"/>	<rect x="32.4" y="4.75" width="16.0" height="9.0" fill="none" style="stroke:rgb(0,0,0);stroke-width:0.2"/>
	<rect x="30.400002" y="1.75" width="23.0" height="12.0" fill="none" style="stroke:rgb(0,0,0);stroke-width:0.2"/>
	<rect x="39.60774" y="7.957738" width="0.38452458" height="0.38452458"/>
	<rect x="45.640198" y="6.9901967" width="0.31960657" height="0.31960657"/>
	<rect x="39.549904" y="5.8999014" width="0.50019675" height="0.50019675"/>
	<rect x="39.584133" y="10.934132" width="0.43173772" height="0.43173772"/>
	<rect x="40.595936" y="9.945934" width="0.40813118" height="0.40813118"/>
	<rect x="43.631348" y="5.981344" width="0.33731148" height="0.33731148"/>
	<rect x="43.603607" y="10.953607" width="0.3927869" height="0.3927869"/>
	<rect x="35.64315" y="9.993148" width="0.31370494" height="0.31370494"/>
	<rect x="45.601246" y="5.951246" width="0.3975082" height="0.3975082"/>
	<rect x="42.630756" y="7.980754" width="0.3384918" height="0.3384918"/>
	<rect x="43.667347" y="9.017344" width="0.26531148" height="0.26531148"/>
	<rect x="45.643738" y="7.9937377" width="0.3125246" height="0.3125246"/>
	<rect x="32.65082" y="10.00082" width="0.29836068" height="0.29836068"/>
	<rect x="36.64138" y="7.991377" width="0.31724593" height="0.31724593"/>
	<rect x="42.607147" y="9.957148" width="0.38570493" height="0.38570493"/>
	<rect x="45.64846" y="9.998459" width="0.30308196" height="0.30308196"/>
	<rect x="40.618954" y="7.9689507" width="0.36209837" height="0.36209837"/>
	<rect x="37.653183" y="8.0031805" width="0.29363936" height="0.29363936"/>
	<rect x="33.64079" y="7.990787" width="0.31842622" height="0.31842622"/>
	<rect x="39.634296" y="4.984295" width="0.33140984" height="0.33140984"/>
	<rect x="42.64138" y="5.991377" width="0.31724593" height="0.31724593"/>
	<rect x="32.620132" y="7.970131" width="0.35973772" height="0.35973772"/>
	<rect x="34.613052" y="8.963049" width="0.37390164" height="0.37390164"/>
	<rect x="32.60243" y="5.9524264" width="0.39514753" height="0.39514753"/>
	<rect x="42.660263" y="5.0102625" width="0.27947542" height="0.27947542"/>
	<rect x="46.633118" y="9.983115" width="0.33377048" height="0.33377048"/>
	<rect x="44.629574" y="4.9795737" width="0.34085247" height="0.34085247"/>
	<rect x="35.65082" y="5.0008197" width="0.29836068" height="0.29836068"/>
	<rect x="44.60597" y="10.955967" width="0.38806558" height="0.38806558"/>
	<rect x="41.628395" y="7.9783936" width="0.3432131" height="0.3432131"/>
	<rect x="38.665577" y="9.0155735" width="0.26885244" height="0.26885244"/>
	<rect x="41.65259" y="5.00259" width="0.29481968" height="0.29481968"/>
	<rect x="32.663803" y="7.0138035" width="0.27239344" height="0.27239344"/>
	<rect x="33.58531" y="8.935311" width="0.42937705" height="0.42937705"/>
	<rect x="43.645508" y="4.995508" width="0.30898362" height="0.30898362"/>
	<rect x="32.638428" y="4.988426" width="0.32314754" height="0.32314754"/>
	<rect x="40.623085" y="6.973082" width="0.35383606" height="0.35383606"/>
	<rect x="38.51036" y="5.8603606" width="0.5792787" height="0.5792787"/>
	<rect x="43.64492" y="7.994918" width="0.31016394" height="0.31016394"/>
	<rect x="46.621902" y="5.9719014" width="0.35619673" height="0.35619673"/>
	<rect x="44.640198" y="9.990197" width="0.31960657" height="0.31960657"/>
	<rect x="39.594757" y="9.944754" width="0.4104918" height="0.4104918"/>
	<rect x="36.478493" y="5.8284917" width="0.6430164" height="0.6430164"/>
	<rect x="36.629574" y="6.9795737" width="0.34085247" height="0.34085247"/>
	<rect x="40.64787" y="4.997869" width="0.3042623" height="0.3042623"/>
	<rect x="38.627804" y="9.977803" width="0.34439346" height="0.34439346"/>
	<rect x="33.6101" y="5.9600983" width="0.37980327" height="0.37980327"/>
	<rect x="41.624855" y="8.974853" width="0.3502951" height="0.3502951"/>
	<rect x="44.667347" y="9.017344" width="0.26531148" height="0.26531148"/>
	<rect x="41.621902" y="6.9719014" width="0.35619673" height="0.35619673"/>
	<rect x="33.64787" y="9.997869" width="0.3042623" height="0.3042623"/>
	<rect x="37.628986" y="6.9789834" width="0.3420328" height="0.3420328"/>
	<rect x="43.6461" y="6.9960985" width="0.30780327" height="0.30780327"/>
	<rect x="36.639606" y="8.989607" width="0.3207869" height="0.3207869"/>
	<rect x="38.620132" y="6.970131" width="0.35973772" height="0.35973772"/>
	<rect x="41.603607" y="9.953607" width="0.3927869" height="0.3927869"/>
	<rect x="37.65259" y="9.00259" width="0.29481968" height="0.29481968"/>
	<rect x="35.630756" y="6.980754" width="0.3384918" height="0.3384918"/>
	<rect x="35.53869" y="5.8886886" width="0.522623" height="0.522623"/>
	<rect x="34.643738" y="7.9937377" width="0.3125246" height="0.3125246"/>
	<rect x="46.60302" y="10.953016" width="0.39396724" height="0.39396724"/>
	<rect x="33.640198" y="6.9901967" width="0.31960657" height="0.31960657"/>
	<rect x="37.57941" y="9.92941" width="0.44118032" height="0.44118032"/>
	<rect x="46.67915" y="9.029147" width="0.24170493" height="0.24170493"/>
	<rect x="32.674427" y="9.024426" width="0.25114754" height="0.25114754"/>
	<rect x="41.628395" y="5.9783936" width="0.3432131" height="0.3432131"/>
	<rect x="44.64315" y="6.9931474" width="0.31370494" height="0.31370494"/>
	<rect x="36.622494" y="4.9724917" width="0.3550164" height="0.3550164"/>
	<rect x="44.64433" y="7.994328" width="0.31134427" height="0.31134427"/>
	<rect x="34.596527" y="5.9465246" width="0.4069508" height="0.4069508"/>
	<rect x="45.60774" y="10.957738" width="0.38452458" height="0.38452458"/>
	<rect x="46.65082" y="7.0008197" width="0.29836068" height="0.29836068"/>
	<rect x="35.65967" y="8.009672" width="0.28065574" height="0.28065574"/>
	<rect x="40.596527" y="10.946525" width="0.4069508" height="0.4069508"/>
	<rect x="42.664986" y="7.0149837" width="0.2700328" height="0.2700328"/>
	<rect x="39.592396" y="6.9423933" width="0.4152131" height="0.4152131"/>
	<rect x="38.639606" y="4.9896064" width="0.3207869" height="0.3207869"/>
	<rect x="37.475544" y="5.825541" width="0.6489181" height="0.6489181"/>
	<rect x="44.616" y="5.966" width="0.368" height="0.368"/>
	<rect x="34.643738" y="9.993738" width="0.3125246" height="0.3125246"/>
	<rect x="42.601837" y="10.951836" width="0.39632788" height="0.39632788"/>
	<rect x="36.620724" y="9.970721" width="0.35855737" height="0.35855737"/>
	<rect x="34.631348" y="6.981344" width="0.33731148" height="0.33731148"/>
	<rect x="38.656723" y="8.0067215" width="0.2865574" height="0.2865574"/>
	<rect x="37.64492" y="4.994918" width="0.31016394" height="0.31016394"/>
	<rect x="46.616592" y="4.96659" width="0.36681968" height="0.36681968"/>
	<rect x="45.61364" y="4.9636393" width="0.3727213" height="0.3727213"/>
	<rect x="42.672657" y="9.0226555" width="0.25468853" height="0.25468853"/>
	<rect x="45.667934" y="9.017935" width="0.26413116" height="0.26413116"/>
	<rect x="35.626625" y="8.976623" width="0.3467541" height="0.3467541"/>
	<rect x="43.631935" y="9.981935" width="0.33613116" height="0.33613116"/>
	<rect x="34.597115" y="4.947115" width="0.4057705" height="0.4057705"/>
	<rect x="39.664986" y="9.014983" width="0.2700328" height="0.2700328"/>
	<rect x="41.614822" y="10.96482" width="0.37036067" height="0.37036067"/>
	<rect x="33.54518" y="4.89518" width="0.5096394" height="0.5096394"/>
	<rect x="40.618362" y="8.968361" width="0.36327872" height="0.36327872"/>
	<rect x="40.614822" y="5.96482" width="0.37036067" height="0.37036067"/>
	<text x="48.9" y="3.75" font-size=".9">Sudan</text>
	<text x="32.9" y="4.25" transform="rotate(-90 32.9,4.25)" font-size=".6">1995-01-01</text>
	<text x="33.9" y="4.25" transform="rotate(-90 33.9,4.25)" font-size=".6">1996-01-01</text>
	<text x="34.9" y="4.25" transform="rotate(-90 34.9,4.25)" font-size=".6">1997-01-01</text>
	<text x="35.9" y="4.25" transform="rotate(-90 35.9,4.25)" font-size=".6">1998-01-01</text>
	<text x="36.9" y="4.25" transform="rotate(-90 36.9,4.25)" font-size=".6">1999-01-01</text>
	<text x="37.9" y="4.25" transform="rotate(-90 37.9,4.25)" font-size=".6">2000-01-01</text>
	<text x="38.9" y="4.25" transform="rotate(-90 38.9,4.25)" font-size=".6">2001-01-01</text>
	<text x="39.9" y="4.25" transform="rotate(-90 39.9,4.25)" font-size=".6">2002-01-01</text>
	<text x="40.9" y="4.25" transform="rotate(-90 40.9,4.25)" font-size=".6">2003-01-01</text>
	<text x="41.9" y="4.25" transform="rotate(-90 41.9,4.25)" font-size=".6">2004-01-01</text>
	<text x="42.9" y="4.25" transform="rotate(-90 42.9,4.25)" font-size=".6">2005-01-01</text>
	<text x="43.9" y="4.25" transform="rotate(-90 43.9,4.25)" font-size=".6">2006-01-01</text>
	<text x="44.9" y="4.25" transform="rotate(-90 44.9,4.25)" font-size=".6">2007-01-01</text>
	<text x="45.9" y="4.25" transform="rotate(-90 45.9,4.25)" font-size=".6">2008-01-01</text>
	<text x="46.9" y="4.25" transform="rotate(-90 46.9,4.25)" font-size=".6">2009-01-01</text>
	<text x="47.9" y="4.25" transform="rotate(-90 47.9,4.25)" font-size=".6">2010-01-01</text>
	<text x="48.9" y="5.25" font-size=".6">India</text>
	<text x="48.9" y="6.25" font-size=".6">China</text>
	<text x="48.9" y="7.25" font-size=".6">United States</text>
	<text x="48.9" y="8.25" font-size=".6">Netherlands</text>
	<text x="48.9" y="9.25" font-size=".6">Germany</text>
	<text x="48.9" y="10.25" font-size=".6">France</text>
	<text x="48.9" y="11.25" font-size=".6">Russian Federation</text>
	<text x="48.9" y="12.25" font-size=".6">Malawi</text>
	<text x="48.9" y="13.25" font-size=".6">Sudan</text>
	<circle cx="31.400002" cy="5.75" r="0.5" fill-opacity="0.0" style="stroke:rgb(0,0,0);stroke-width:0.1"/>	<circle cx="31.400002" cy="12.75" r="0.5" fill-opacity="0.0" style="stroke:rgb(0,0,0);stroke-width:0.1"/></svg>